<svg xmlns="http://www.w3.org/2000/svg" xmlns:xlink="http://www.w3.org/1999/xlink" xmlns:lucid="lucid" width="661" height="440"><g transform="translate(-540 -380)" lucid:page-tab-id="NFIs4SXm9B2x"><path d="M660 406c0-3.3 2.7-6 6-6h128c3.3 0 6 2.7 6 6v388c0 3.3-2.7 6-6 6H666c-3.3 0-6-2.7-6-6z" stroke="#000" stroke-opacity="0" stroke-width="3" fill="#ffbbb1" fill-opacity=".26"/><use xlink:href="#a" transform="matrix(1,0,0,1,665,405) translate(20.990740740740748 12.444444444444443)"/><use xlink:href="#b" transform="matrix(1,0,0,1,665,405) translate(42.595679012345684 12.444444444444443)"/><use xlink:href="#c" transform="matrix(1,0,0,1,665,405) translate(93.49691358024691 12.444444444444443)"/><path d="M591 769.12h560.5M591.03 769.12H590" stroke="#5bf" stroke-width="2" fill="none"/><path d="M1166.76 769.12l-14.26 4.64v-9.28z" stroke="#5bf" stroke-width="2" fill="#5bf"/><path d="M640 680c0 22.1-17.9 40-40 40s-40-17.9-40-40 17.9-40 40-40 40 17.9 40 40z" stroke="#5bf" stroke-width="3" fill-opacity="0"/><use xlink:href="#d" transform="matrix(1,0,0,1,565,645) translate(10.33333333333334 38.28472222222222)"/><use xlink:href="#e" transform="matrix(1,0,0,1,565,645) translate(39.91358024691358 38.28472222222222)"/><path d="M640 580c0 22.1-17.9 40-40 40s-40-17.9-40-40 17.9-40 40-40 40 17.9 40 40z" stroke="#5bf" stroke-width="3" fill-opacity="0"/><use xlink:href="#d" transform="matrix(1,0,0,1,565,545) translate(10.33333333333334 38.28472222222222)"/><use xlink:href="#f" transform="matrix(1,0,0,1,565,545) translate(39.91358024691358 38.28472222222222)"/><path d="M640 480c0 22.1-17.9 40-40 40s-40-17.9-40-40 17.9-40 40-40 40 17.9 40 40z" stroke="#5bf" stroke-width="3" fill-opacity="0"/><use xlink:href="#d" transform="matrix(1,0,0,1,565,445) translate(10.33333333333334 38.28472222222222)"/><use xlink:href="#g" transform="matrix(1,0,0,1,565,445) translate(39.91358024691358 38.28472222222222)"/><path d="M642.5 680h150.1c3.3 0 6 2.7 6 6v64.62" stroke="#5bf" stroke-width="2" fill="none"/><path d="M642.53 681h-1.1l.07-.98-.03-1.02h1.06" fill="#5bf"/><path d="M798.6 765.88l-4.65-14.26h9.27z" stroke="#5bf" stroke-width="2" fill="#5bf"/><use xlink:href="#h" transform="matrix(1,0,0,1,750.6223860458325,728.4916773173586) translate(0 10.666666666666668)"/><path d="M642.5 580h331.98c3.3 0 6 2.7 6 6v164.62" stroke="#5bf" stroke-width="2" fill="none"/><path d="M642.53 581h-1.1l.07-.98-.03-1.02h1.06" fill="#5bf"/><path d="M980.48 765.88l-4.64-14.26h9.27z" stroke="#5bf" stroke-width="2" fill="#5bf"/><use xlink:href="#h" transform="matrix(1,0,0,1,932.512758379723,728.8015253961898) translate(0 10.666666666666668)"/><path d="M642.5 480h492.2c3.33 0 6 2.7 6 6v264.62" stroke="#5bf" stroke-width="2" fill="none"/><path d="M642.53 481h-1.1l.07-.98-.03-1.02h1.06" fill="#5bf"/><path d="M1140.7 765.88l-4.62-14.26h9.27z" stroke="#5bf" stroke-width="2" fill="#5bf"/><use xlink:href="#h" transform="matrix(1,0,0,1,1148.712477922542,727.5958507836027) translate(0 10.666666666666668)"/><path d="M818.5 768.12V598.5M818.5 768.1v1.02" stroke="#5bf" stroke-width="2" fill="none"/><path d="M818.5 583.24l4.64 14.26h-9.27z" stroke="#5bf" stroke-width="2" fill="#5bf"/><path d="M833.23 768.12V498.5M833.23 768.1v1.02" stroke="#5bf" stroke-width="2" fill="none"/><path d="M833.23 483.24l4.64 14.26h-9.27z" stroke="#5bf" stroke-width="2" fill="#5bf"/><use xlink:href="#i" transform="matrix(1,0,0,1,841.2311342152509,728.4916773173586) translate(0 10.666666666666668)"/><path d="M1000 768.12V498.5M1000 768.1v1.02" stroke="#5bf" stroke-width="2" fill="none"/><path d="M1000 483.24l4.64 14.26h-9.28z" stroke="#5bf" stroke-width="2" fill="#5bf"/><use xlink:href="#i" transform="matrix(1,0,0,1,1008.0000000000001,727.5958507836026) translate(0 10.666666666666668)"/><path d="M840 406c0-3.3 2.7-6 6-6h128c3.3 0 6 2.7 6 6v388c0 3.3-2.7 6-6 6H846c-3.3 0-6-2.7-6-6z" stroke="#000" stroke-opacity="0" stroke-width="3" fill="#ffbbb1" fill-opacity=".26"/><g><use xlink:href="#a" transform="matrix(1,0,0,1,845,405) translate(20.990740740740748 12.444444444444443)"/><use xlink:href="#b" transform="matrix(1,0,0,1,845,405) translate(42.595679012345684 12.444444444444443)"/><use xlink:href="#c" transform="matrix(1,0,0,1,845,405) translate(93.49691358024691 12.444444444444443)"/></g><path d="M1000 406c0-3.3 2.7-6 6-6h128c3.3 0 6 2.7 6 6v388c0 3.3-2.7 6-6 6h-128c-3.3 0-6-2.7-6-6z" stroke="#000" stroke-opacity="0" stroke-width="3" fill="#ffbbb1" fill-opacity=".26"/><g><use xlink:href="#a" transform="matrix(1,0,0,1,1005,405) translate(20.990740740740748 12.444444444444443)"/><use xlink:href="#b" transform="matrix(1,0,0,1,1005,405) translate(42.595679012345684 12.444444444444443)"/><use xlink:href="#c" transform="matrix(1,0,0,1,1005,405) translate(93.49691358024691 12.444444444444443)"/></g><defs><path fill="red" d="M126-127c33 6 58 20 58 59 0 88-139 92-164 29-3-8-5-16-6-25l32-3c6 27 21 44 54 44 32 0 52-15 52-46 0-38-36-46-79-43v-28c39 1 72-4 72-42 0-27-17-43-46-43-28 0-47 15-49 41l-32-3c6-42 35-63 81-64 48-1 79 21 79 65 0 36-21 52-52 59" id="j"/><path fill="red" d="M101-251c68 0 85 55 85 127S166 4 100 4C33 4 14-52 14-124c0-73 17-127 87-127zm-1 229c47 0 54-49 54-102s-4-102-53-102c-51 0-55 48-55 102 0 53 5 102 54 102" id="k"/><g id="a"><use transform="matrix(0.04320987654320987,0,0,0.04320987654320987,0,0)" xlink:href="#j"/><use transform="matrix(0.04320987654320987,0,0,0.04320987654320987,8.641975308641973,0)" xlink:href="#k"/></g><path fill="red" d="M210-169c-67 3-38 105-44 169h-31v-121c0-29-5-50-35-48C34-165 62-65 56 0H25l-1-190h30c1 10-1 24 2 32 10-44 99-50 107 0 11-21 27-35 58-36 85-2 47 119 55 194h-31v-121c0-29-5-49-35-48" id="l"/><path fill="red" d="M24-231v-30h32v30H24zM24 0v-190h32V0H24" id="m"/><path fill="red" d="M117-194c89-4 53 116 60 194h-32v-121c0-31-8-49-39-48C34-167 62-67 57 0H25l-1-190h30c1 10-1 24 2 32 11-22 29-35 61-36" id="n"/><path fill="red" d="M84 4C-5 8 30-112 23-190h32v120c0 31 7 50 39 49 72-2 45-101 50-169h31l1 190h-30c-1-10 1-25-2-33-11 22-28 36-60 37" id="o"/><path fill="red" d="M59-47c-2 24 18 29 38 22v24C64 9 27 4 27-40v-127H5v-23h24l9-43h21v43h35v23H59v120" id="p"/><path fill="red" d="M100-194c63 0 86 42 84 106H49c0 40 14 67 53 68 26 1 43-12 49-29l28 8c-11 28-37 45-77 45C44 4 14-33 15-96c1-61 26-98 85-98zm52 81c6-60-76-77-97-28-3 7-6 17-6 28h103" id="q"/><g id="b"><use transform="matrix(0.04320987654320987,0,0,0.04320987654320987,0,0)" xlink:href="#l"/><use transform="matrix(0.04320987654320987,0,0,0.04320987654320987,12.91975308641975,0)" xlink:href="#m"/><use transform="matrix(0.04320987654320987,0,0,0.04320987654320987,16.33333333333333,0)" xlink:href="#n"/><use transform="matrix(0.04320987654320987,0,0,0.04320987654320987,24.975308641975303,0)" xlink:href="#o"/><use transform="matrix(0.04320987654320987,0,0,0.04320987654320987,33.61728395061728,0)" xlink:href="#p"/><use transform="matrix(0.04320987654320987,0,0,0.04320987654320987,37.938271604938265,0)" xlink:href="#q"/></g><path fill="red" d="M212-179c-10-28-35-45-73-45-59 0-87 40-87 99 0 60 29 101 89 101 43 0 62-24 78-52l27 14C228-24 195 4 139 4 59 4 22-46 18-125c-6-104 99-153 187-111 19 9 31 26 39 46" id="r"/><path fill="red" d="M33 0v-248h34V0H33" id="s"/><g id="c"><use transform="matrix(0.04320987654320987,0,0,0.04320987654320987,0,0)" xlink:href="#r"/><use transform="matrix(0.04320987654320987,0,0,0.04320987654320987,11.191358024691356,0)" xlink:href="#s"/></g><path fill="#5bf" d="M30-248c87 1 191-15 191 75 0 78-77 80-158 76V0H30v-248zm33 125c57 0 124 11 124-50 0-59-68-47-124-48v98" id="t"/><path fill="#5bf" d="M233-177c-1 41-23 64-60 70L243 0h-38l-65-103H63V0H30v-248c88 3 205-21 203 71zM63-129c60-2 137 13 137-47 0-61-80-42-137-45v92" id="u"/><g id="d"><use transform="matrix(0.049382716049382706,0,0,0.049382716049382706,0,0)" xlink:href="#t"/><use transform="matrix(0.049382716049382706,0,0,0.049382716049382706,11.85185185185185,0)" xlink:href="#u"/></g><path fill="#5bf" d="M158-156l-14 65h45v19h-49L124 0h-19l15-72H56L41 0H22l15-72H2v-19h39l14-65H11v-19h48l15-71h20l-16 71h64l16-71h19l-16 71h37v19h-40zm-83 0L61-91h63l14-65H75" id="v"/><path fill="#5bf" d="M27 0v-27h64v-190l-56 39v-29l58-41h29v221h61V0H27" id="w"/><g id="e"><use transform="matrix(0.049382716049382706,0,0,0.049382716049382706,0,0)" xlink:href="#v"/><use transform="matrix(0.049382716049382706,0,0,0.049382716049382706,9.87654320987654,0)" xlink:href="#w"/></g><path fill="#5bf" d="M101-251c82-7 93 87 43 132L82-64C71-53 59-42 53-27h129V0H18c2-99 128-94 128-182 0-28-16-43-45-43s-46 15-49 41l-32-3c6-41 34-60 81-64" id="x"/><g id="f"><use transform="matrix(0.049382716049382706,0,0,0.049382716049382706,0,0)" xlink:href="#v"/><use transform="matrix(0.049382716049382706,0,0,0.049382716049382706,9.87654320987654,0)" xlink:href="#x"/></g><path fill="#5bf" d="M126-127c33 6 58 20 58 59 0 88-139 92-164 29-3-8-5-16-6-25l32-3c6 27 21 44 54 44 32 0 52-15 52-46 0-38-36-46-79-43v-28c39 1 72-4 72-42 0-27-17-43-46-43-28 0-47 15-49 41l-32-3c6-42 35-63 81-64 48-1 79 21 79 65 0 36-21 52-52 59" id="y"/><g id="g"><use transform="matrix(0.049382716049382706,0,0,0.049382716049382706,0,0)" xlink:href="#v"/><use transform="matrix(0.049382716049382706,0,0,0.049382716049382706,9.87654320987654,0)" xlink:href="#y"/></g><path fill="#5bf" d="M220-157c-53 9-28 100-34 157h-49v-107c1-27-5-49-29-50C55-147 81-57 75 0H25l-1-190h47c2 12-1 28 3 38 10-53 101-56 108 0 13-22 24-43 59-42 82 1 51 116 57 194h-49v-107c-1-25-5-48-29-50" id="z"/><path fill="#5bf" d="M185-48c-13 30-37 53-82 52C43 2 14-33 14-96s30-98 90-98c62 0 83 45 84 108H66c0 31 8 55 39 56 18 0 30-7 34-22zm-45-69c5-46-57-63-70-21-2 6-4 13-4 21h74" id="A"/><path fill="#5bf" d="M135-150c-39-12-60 13-60 57V0H25l-1-190h47c2 13-1 29 3 40 6-28 27-53 61-41v41" id="B"/><path fill="#5bf" d="M195-6C206 82 75 100 31 46c-4-6-6-13-8-21l49-6c3 16 16 24 34 25 40 0 42-37 40-79-11 22-30 35-61 35-53 0-70-43-70-97 0-56 18-96 73-97 30 0 46 14 59 34l2-30h47zm-90-29c32 0 41-27 41-63 0-35-9-62-40-62-32 0-39 29-40 63 0 36 9 62 39 62" id="C"/><g id="h"><use transform="matrix(0.03703703703703704,0,0,0.03703703703703704,0,0)" xlink:href="#z"/><use transform="matrix(0.03703703703703704,0,0,0.03703703703703704,11.851851851851853,0)" xlink:href="#A"/><use transform="matrix(0.03703703703703704,0,0,0.03703703703703704,19.259259259259256,0)" xlink:href="#B"/><use transform="matrix(0.03703703703703704,0,0,0.03703703703703704,24.444444444444446,0)" xlink:href="#C"/><use transform="matrix(0.03703703703703704,0,0,0.03703703703703704,32.55555555555556,0)" xlink:href="#A"/></g><path fill="#5bf" d="M135-194c52 0 70 43 70 98 0 56-19 99-73 100-30 1-46-15-58-35L72 0H24l1-261h50v104c11-23 29-37 60-37zM114-30c31 0 40-27 40-66 0-37-7-63-39-63s-41 28-41 65c0 36 8 64 40 64" id="D"/><path fill="#5bf" d="M133-34C117-15 103 5 69 4 32 3 11-16 11-54c-1-60 55-63 116-61 1-26-3-47-28-47-18 1-26 9-28 27l-52-2c7-38 36-58 82-57s74 22 75 68l1 82c-1 14 12 18 25 15v27c-30 8-71 5-69-32zm-48 3c29 0 43-24 42-57-32 0-66-3-65 30 0 17 8 27 23 27" id="E"/><path fill="#5bf" d="M137-138c1-29-70-34-71-4 15 46 118 7 119 86 1 83-164 76-172 9l43-7c4 19 20 25 44 25 33 8 57-30 24-41C81-84 22-81 20-136c-2-80 154-74 161-7" id="F"/><g id="i"><use transform="matrix(0.03703703703703704,0,0,0.03703703703703704,0,0)" xlink:href="#B"/><use transform="matrix(0.03703703703703704,0,0,0.03703703703703704,5.185185185185186,0)" xlink:href="#A"/><use transform="matrix(0.03703703703703704,0,0,0.03703703703703704,12.592592592592593,0)" xlink:href="#D"/><use transform="matrix(0.03703703703703704,0,0,0.03703703703703704,20.70370370370371,0)" xlink:href="#E"/><use transform="matrix(0.03703703703703704,0,0,0.03703703703703704,28.111111111111118,0)" xlink:href="#F"/><use transform="matrix(0.03703703703703704,0,0,0.03703703703703704,35.518518518518526,0)" xlink:href="#A"/></g></defs></g></svg>