<svg xmlns="http://www.w3.org/2000/svg" xmlns:xlink="http://www.w3.org/1999/xlink" xmlns:lucid="lucid" width="788" height="780"><g transform="translate(-486 -260)" lucid:page-tab-id="5hJsGhHkr-k5"><path d="M506 286c0-3.3 2.7-6 6-6h736c3.3 0 6 2.7 6 6v348c0 3.3-2.7 6-6 6H512c-3.3 0-6-2.7-6-6z" stroke="#000" stroke-opacity="0" stroke-width="3" fill="#999" fill-opacity=".26"/><use xlink:href="#a" transform="matrix(1,0,0,1,511,285) translate(234.55555555555557 17.77777777777778)"/><use xlink:href="#b" transform="matrix(1,0,0,1,511,285) translate(303.5679012345679 17.77777777777778)"/><use xlink:href="#c" transform="matrix(1,0,0,1,511,285) translate(382.58024691358025 17.77777777777778)"/><use xlink:href="#d" transform="matrix(1,0,0,1,511,285) translate(417.0864197530864 17.77777777777778)"/><path d="M591 600h560.5M591.03 600H590" stroke="#5bf" stroke-width="2" fill="none"/><path d="M1166.76 600l-14.26 4.64v-9.28z" stroke="#5bf" stroke-width="2" fill="#5bf"/><use xlink:href="#e" transform="matrix(1,0,0,1,569.283950617284,604) translate(0 14.222222222222223)"/><path d="M650 402.5V494c0 3.3 2.7 6 6 6h14" stroke="#5bf" stroke-width="2" fill="none"/><path d="M649.98 401.5l1.02-.03v1.06h-2v-1.1" fill="#5bf"/><path d="M685.26 500L671 504.64v-9.28z" stroke="#5bf" stroke-width="2" fill="#5bf"/><path d="M772.5 500h24.17c3.3 0 6 2.7 6 6v75.5" stroke="#5bf" stroke-width="2" fill="none"/><path d="M772.53 501h-1.1l.07-.98-.03-1.02h1.06" fill="#5bf"/><path d="M802.67 596.76l-4.64-14.26h9.27z" stroke="#5bf" stroke-width="2" fill="#5bf"/><use xlink:href="#f" transform="matrix(1,0,0,1,736.7479060483696,560.7234748852524) translate(0 14.222222222222223)"/><path d="M690 360c0 22.1-17.9 40-40 40s-40-17.9-40-40 17.9-40 40-40 40 17.9 40 40z" stroke="#5bf" stroke-width="3" fill-opacity="0"/><use xlink:href="#g" transform="matrix(1,0,0,1,615,325) translate(10.33333333333334 38.28472222222222)"/><use xlink:href="#h" transform="matrix(1,0,0,1,615,325) translate(39.91358024691358 38.28472222222222)"/><path d="M650.14 599v-93c0-3.3 2.7-6 6-6H670M650.14 598.97V600" stroke="#5bf" stroke-width="2" fill="none"/><path d="M685.26 500L671 504.64v-9.28z" stroke="#5bf" stroke-width="2" fill="#5bf"/><path d="M770 500c0 22.1-17.9 40-40 40s-40-17.9-40-40 17.9-40 40-40 40 17.9 40 40z" stroke="#5bf" stroke-width="3" fill-opacity="0"/><use xlink:href="#i" transform="matrix(1,0,0,1,695,465) translate(8.358024691358029 38.28472222222222)"/><path d="M660 426c0-3.3 2.7-6 6-6h128c3.3 0 6 2.7 6 6v128c0 3.3-2.7 6-6 6H666c-3.3 0-6-2.7-6-6z" stroke="#000" stroke-opacity="0" stroke-width="3" fill="#ffbbb1" fill-opacity=".26"/><use xlink:href="#j" transform="matrix(1,0,0,1,665,425) translate(20.990740740740748 12.444444444444443)"/><use xlink:href="#k" transform="matrix(1,0,0,1,665,425) translate(42.595679012345684 12.444444444444443)"/><use xlink:href="#l" transform="matrix(1,0,0,1,665,425) translate(93.49691358024691 12.444444444444443)"/><path d="M787.63 520l10.75-18.62-2.4-1.38-9.38 16.32-5.22-3.04-1.38 2.38 7.48 4.34.04-.08.1.08z" stroke="#000" stroke-opacity="0" fill="#92d050"/><path d="M810 402.5V494c0 3.3 2.7 6 6 6h14" stroke="#5bf" stroke-width="2" fill="none"/><path d="M809.98 401.5l1.02-.03v1.06h-2v-1.1" fill="#5bf"/><path d="M845.26 500L831 504.64v-9.28z" stroke="#5bf" stroke-width="2" fill="#5bf"/><path d="M932.5 500h24.17c3.3 0 6 2.7 6 6v75.5" stroke="#5bf" stroke-width="2" fill="none"/><path d="M932.53 501h-1.1l.07-.98-.03-1.02h1.06" fill="#5bf"/><path d="M962.67 596.76l-4.64-14.26h9.27z" stroke="#5bf" stroke-width="2" fill="#5bf"/><use xlink:href="#f" transform="matrix(1,0,0,1,896.7479060483696,560.7234748852524) translate(0 14.222222222222223)"/><path d="M850 360c0 22.1-17.9 40-40 40s-40-17.9-40-40 17.9-40 40-40 40 17.9 40 40z" stroke="#5bf" stroke-width="3" fill-opacity="0"/><use xlink:href="#g" transform="matrix(1,0,0,1,775,325) translate(10.33333333333334 38.28472222222222)"/><use xlink:href="#m" transform="matrix(1,0,0,1,775,325) translate(39.91358024691358 38.28472222222222)"/><path d="M810.14 599v-93c0-3.3 2.7-6 6-6H830M810.14 598.97V600" stroke="#5bf" stroke-width="2" fill="none"/><path d="M845.26 500L831 504.64v-9.28z" stroke="#5bf" stroke-width="2" fill="#5bf"/><path d="M930 500c0 22.1-17.9 40-40 40s-40-17.9-40-40 17.9-40 40-40 40 17.9 40 40z" stroke="#5bf" stroke-width="3" fill-opacity="0"/><use xlink:href="#i" transform="matrix(1,0,0,1,855,465) translate(8.358024691358029 38.28472222222222)"/><path d="M820 426c0-3.3 2.7-6 6-6h128c3.3 0 6 2.7 6 6v128c0 3.3-2.7 6-6 6H826c-3.3 0-6-2.7-6-6z" stroke="#000" stroke-opacity="0" stroke-width="3" fill="#ffbbb1" fill-opacity=".26"/><use xlink:href="#j" transform="matrix(1,0,0,1,825,425) translate(20.990740740740748 12.444444444444443)"/><use xlink:href="#k" transform="matrix(1,0,0,1,825,425) translate(42.595679012345684 12.444444444444443)"/><use xlink:href="#l" transform="matrix(1,0,0,1,825,425) translate(93.49691358024691 12.444444444444443)"/><path d="M947.63 520l10.75-18.62-2.4-1.38-9.38 16.32-5.22-3.04-1.38 2.38 7.48 4.34.04-.08.1.08z" stroke="#000" stroke-opacity="0" fill="#92d050"/><path d="M970 402.5V494c0 3.3 2.7 6 6 6h14" stroke="#5bf" stroke-width="2" fill="none"/><path d="M969.98 401.5l1.02-.03v1.06h-2v-1.1" fill="#5bf"/><path d="M1005.26 500L991 504.64v-9.28z" stroke="#5bf" stroke-width="2" fill="#5bf"/><path d="M1092.5 500h24.17c3.3 0 6 2.7 6 6v75.5" stroke="#5bf" stroke-width="2" fill="none"/><path d="M1092.53 501h-1.1l.07-.98-.03-1.02h1.06" fill="#5bf"/><path d="M1122.67 596.76l-4.64-14.26h9.27z" stroke="#5bf" stroke-width="2" fill="#5bf"/><use xlink:href="#f" transform="matrix(1,0,0,1,1056.7479060483695,560.7234748852524) translate(0 14.222222222222223)"/><path d="M1010 360c0 22.1-17.9 40-40 40s-40-17.9-40-40 17.9-40 40-40 40 17.9 40 40z" stroke="#5bf" stroke-width="3" fill-opacity="0"/><use xlink:href="#g" transform="matrix(1,0,0,1,935,325) translate(10.33333333333334 38.28472222222222)"/><use xlink:href="#n" transform="matrix(1,0,0,1,935,325) translate(39.91358024691358 38.28472222222222)"/><path d="M970.14 599v-93c0-3.3 2.7-6 6-6H990M970.14 598.97V600" stroke="#5bf" stroke-width="2" fill="none"/><path d="M1005.26 500L991 504.64v-9.28z" stroke="#5bf" stroke-width="2" fill="#5bf"/><path d="M1090 500c0 22.1-17.9 40-40 40s-40-17.9-40-40 17.9-40 40-40 40 17.9 40 40z" stroke="#5bf" stroke-width="3" fill-opacity="0"/><use xlink:href="#i" transform="matrix(1,0,0,1,1015,465) translate(8.358024691358029 38.28472222222222)"/><path d="M980 426c0-3.3 2.7-6 6-6h128c3.3 0 6 2.7 6 6v128c0 3.3-2.7 6-6 6H986c-3.3 0-6-2.7-6-6z" stroke="#000" stroke-opacity="0" stroke-width="3" fill="#ffbbb1" fill-opacity=".26"/><use xlink:href="#j" transform="matrix(1,0,0,1,985,425) translate(20.990740740740748 12.444444444444443)"/><use xlink:href="#k" transform="matrix(1,0,0,1,985,425) translate(42.595679012345684 12.444444444444443)"/><use xlink:href="#l" transform="matrix(1,0,0,1,985,425) translate(93.49691358024691 12.444444444444443)"/><path d="M1107.63 520l10.75-18.62-2.4-1.38-9.38 16.32-5.22-3.04-1.38 2.38 7.48 4.34.04-.08.1.08z" stroke="#000" stroke-opacity="0" fill="#92d050"/><path d="M506 666c0-3.3 2.7-6 6-6h736c3.3 0 6 2.7 6 6v348c0 3.3-2.7 6-6 6H512c-3.3 0-6-2.7-6-6z" stroke="#000" stroke-opacity="0" stroke-width="3" fill="#999" fill-opacity=".26"/><use xlink:href="#a" transform="matrix(1,0,0,1,511,665) translate(251.80864197530866 17.77777777777778)"/><use xlink:href="#b" transform="matrix(1,0,0,1,511,665) translate(320.820987654321 17.77777777777778)"/><use xlink:href="#d" transform="matrix(1,0,0,1,511,665) translate(399.8333333333333 17.77777777777778)"/><path d="M591 980h560.5M591.03 980H590" stroke="#5bf" stroke-width="2" fill="none"/><path d="M1166.76 980l-14.26 4.64v-9.28z" stroke="#5bf" stroke-width="2" fill="#5bf"/><use xlink:href="#e" transform="matrix(1,0,0,1,569.283950617284,984) translate(0 14.222222222222223)"/><path d="M651 873.87l.7 2.64 1.8 1.8 2.63.7H670v2h-14.13l-3.42-.92-2.53-2.53-.92-3.42v-13.46h2m0-21.34h-2V782.5h2" fill="#5bf"/><path d="M649.98 781.5l1.02-.03v1.06h-2v-1.1M685.26 880L671 884.64v-9.28z" fill="#5bf"/><path d="M688.5 880l-18.5 6v-12m2 9.26l10.03-3.26-10.03-3.26" fill="#5bf"/><use xlink:href="#f" transform="matrix(1,0,0,1,623.358024691358,839.3333214677216) translate(0 14.222222222222223)"/><path d="M772.5 880h24.17c3.3 0 6 2.7 6 6v75.5" stroke="#5bf" stroke-width="2" fill="none"/><path d="M772.53 881h-1.1l.07-.98-.03-1.02h1.06" fill="#5bf"/><path d="M802.67 976.76l-4.64-14.26h9.27z" stroke="#5bf" stroke-width="2" fill="#5bf"/><use xlink:href="#f" transform="matrix(1,0,0,1,736.7479060483696,940.7234748852524) translate(0 14.222222222222223)"/><path d="M690 766.9c0 7.24-17.9 13.1-40 13.1s-40-5.86-40-13.1c0-7.22 17.9-13.1 40-13.1s40 5.88 40 13.1z" stroke="#5bf" stroke-width="3" fill-opacity="0"/><use xlink:href="#g" transform="matrix(1,0,0,1,615,758.813145423189) translate(10.33333333333334 14.222222222222221)"/><use xlink:href="#n" transform="matrix(1,0,0,1,615,758.813145423189) translate(39.91358024691358 14.222222222222221)"/><path d="M670 881h-13.73l-2.64.7-1.77 1.8-.72 2.63V979h-2v-93.13l.92-3.42 2.53-2.53 3.4-.92h14" fill="#5bf"/><path d="M651.14 980h-2v-1.03h2M685.26 880L671 884.64v-9.28z" fill="#5bf"/><path d="M688.5 880l-18.5 6v-12m2 9.26l10.03-3.26-10.03-3.26" fill="#5bf"/><path d="M770 880c0 22.1-17.9 40-40 40s-40-17.9-40-40 17.9-40 40-40 40 17.9 40 40z" stroke="#5bf" stroke-width="3" fill-opacity="0"/><use xlink:href="#i" transform="matrix(1,0,0,1,695,845) translate(8.358024691358029 38.28472222222222)"/><path d="M660 806c0-3.3 2.7-6 6-6h128c3.3 0 6 2.7 6 6v128c0 3.3-2.7 6-6 6H666c-3.3 0-6-2.7-6-6z" stroke="#000" stroke-opacity="0" stroke-width="3" fill="#ffbbb1" fill-opacity=".26"/><use xlink:href="#j" transform="matrix(1,0,0,1,665,805) translate(20.990740740740748 12.444444444444443)"/><use xlink:href="#k" transform="matrix(1,0,0,1,665,805) translate(42.595679012345684 12.444444444444443)"/><use xlink:href="#l" transform="matrix(1,0,0,1,665,805) translate(93.49691358024691 12.444444444444443)"/><path d="M690 740.72c0 7.23-17.9 13.1-40 13.1s-40-5.87-40-13.1c0-7.23 17.9-13.1 40-13.1s40 5.87 40 13.1z" stroke="#5bf" stroke-width="3" fill-opacity="0"/><use xlink:href="#g" transform="matrix(1,0,0,1,615,732.626290846378) translate(10.33333333333334 14.222222222222221)"/><use xlink:href="#m" transform="matrix(1,0,0,1,615,732.626290846378) translate(39.91358024691358 14.222222222222221)"/><path d="M690 713.1c0 7.22-17.9 13.1-40 13.1s-40-5.88-40-13.1c0-7.24 17.9-13.1 40-13.1s40 5.86 40 13.1z" stroke="#5bf" stroke-width="3" fill-opacity="0"/><use xlink:href="#g" transform="matrix(1,0,0,1,615,705) translate(10.33333333333334 14.222222222222221)"/><use xlink:href="#h" transform="matrix(1,0,0,1,615,705) translate(39.91358024691358 14.222222222222221)"/><path d="M787.63 900l10.75-18.62-2.4-1.38-9.38 16.32-5.22-3.04-1.38 2.38 7.48 4.34.04-.08.1.08z" stroke="#000" stroke-opacity="0" fill="#92d050"/><path d="M811 873.87l.7 2.64 1.8 1.8 2.63.7H830v2h-14.13l-3.42-.92-2.53-2.53-.92-3.42v-13.46h2m0-21.34h-2V782.5h2" fill="#5bf"/><path d="M809.98 781.5l1.02-.03v1.06h-2v-1.1M845.26 880L831 884.64v-9.28z" fill="#5bf"/><path d="M848.5 880l-18.5 6v-12m2 9.26l10.03-3.26-10.03-3.26" fill="#5bf"/><use xlink:href="#f" transform="matrix(1,0,0,1,783.358024691358,839.3333214677215) translate(0 14.222222222222223)"/><path d="M932.5 880h24.17c3.3 0 6 2.7 6 6v75.5" stroke="#5bf" stroke-width="2" fill="none"/><path d="M932.53 881h-1.1l.07-.98-.03-1.02h1.06" fill="#5bf"/><path d="M962.67 976.76l-4.64-14.26h9.27z" stroke="#5bf" stroke-width="2" fill="#5bf"/><use xlink:href="#f" transform="matrix(1,0,0,1,896.7479060483696,940.7234748852524) translate(0 14.222222222222223)"/><path d="M850 766.9c0 7.24-17.9 13.1-40 13.1s-40-5.86-40-13.1c0-7.22 17.9-13.1 40-13.1s40 5.88 40 13.1z" stroke="#5bf" stroke-width="3" fill-opacity="0"/><use xlink:href="#g" transform="matrix(1,0,0,1,775,758.8131454231889) translate(10.33333333333334 14.222222222222221)"/><use xlink:href="#o" transform="matrix(1,0,0,1,775,758.8131454231889) translate(39.91358024691358 14.222222222222221)"/><path d="M830 881h-13.73l-2.64.7-1.77 1.8-.72 2.63V979h-2v-93.13l.92-3.42 2.53-2.53 3.4-.92h14" fill="#5bf"/><path d="M811.14 980h-2v-1.03h2M845.26 880L831 884.64v-9.28z" fill="#5bf"/><path d="M848.5 880l-18.5 6v-12m2 9.26l10.03-3.26-10.03-3.26" fill="#5bf"/><path d="M930 880c0 22.1-17.9 40-40 40s-40-17.9-40-40 17.9-40 40-40 40 17.9 40 40z" stroke="#5bf" stroke-width="3" fill-opacity="0"/><use xlink:href="#i" transform="matrix(1,0,0,1,855,845) translate(8.358024691358029 38.28472222222222)"/><path d="M820 806c0-3.3 2.7-6 6-6h128c3.3 0 6 2.7 6 6v128c0 3.3-2.7 6-6 6H826c-3.3 0-6-2.7-6-6z" stroke="#000" stroke-opacity="0" stroke-width="3" fill="#ffbbb1" fill-opacity=".26"/><use xlink:href="#j" transform="matrix(1,0,0,1,825,805) translate(20.990740740740748 12.444444444444443)"/><use xlink:href="#k" transform="matrix(1,0,0,1,825,805) translate(42.595679012345684 12.444444444444443)"/><use xlink:href="#l" transform="matrix(1,0,0,1,825,805) translate(93.49691358024691 12.444444444444443)"/><path d="M850 740.72c0 7.23-17.9 13.1-40 13.1s-40-5.87-40-13.1c0-7.23 17.9-13.1 40-13.1s40 5.87 40 13.1z" stroke="#5bf" stroke-width="3" fill-opacity="0"/><use xlink:href="#g" transform="matrix(1,0,0,1,775,732.626290846378) translate(10.33333333333334 14.222222222222221)"/><use xlink:href="#p" transform="matrix(1,0,0,1,775,732.626290846378) translate(39.91358024691358 14.222222222222221)"/><path d="M850 713.1c0 7.22-17.9 13.1-40 13.1s-40-5.88-40-13.1c0-7.24 17.9-13.1 40-13.1s40 5.86 40 13.1z" stroke="#5bf" stroke-width="3" fill-opacity="0"/><use xlink:href="#g" transform="matrix(1,0,0,1,775,705) translate(10.33333333333334 14.222222222222221)"/><use xlink:href="#q" transform="matrix(1,0,0,1,775,705) translate(39.91358024691358 14.222222222222221)"/><path d="M947.63 900l10.75-18.62-2.4-1.38-9.38 16.32-5.22-3.04-1.38 2.38 7.48 4.34.04-.08.1.08z" stroke="#000" stroke-opacity="0" fill="#92d050"/><path d="M971 873.87l.7 2.64 1.8 1.8 2.63.7H990v2h-14.13l-3.42-.92-2.53-2.53-.92-3.42v-13.46h2m0-21.34h-2V782.5h2" fill="#5bf"/><path d="M969.98 781.5l1.02-.03v1.06h-2v-1.1M1005.26 880L991 884.64v-9.28z" fill="#5bf"/><path d="M1008.5 880l-18.5 6v-12m2 9.26l10.03-3.26-10.03-3.26" fill="#5bf"/><g><use xlink:href="#f" transform="matrix(1,0,0,1,943.358024691358,839.3333214677215) translate(0 14.222222222222223)"/></g><path d="M1092.5 880h24.17c3.3 0 6 2.7 6 6v75.5" stroke="#5bf" stroke-width="2" fill="none"/><path d="M1092.53 881h-1.1l.07-.98-.03-1.02h1.06" fill="#5bf"/><path d="M1122.67 976.76l-4.64-14.26h9.27z" stroke="#5bf" stroke-width="2" fill="#5bf"/><g><use xlink:href="#f" transform="matrix(1,0,0,1,1056.7479060483695,940.7234748852524) translate(0 14.222222222222223)"/></g><path d="M1010 766.9c0 7.24-17.9 13.1-40 13.1s-40-5.86-40-13.1c0-7.22 17.9-13.1 40-13.1s40 5.88 40 13.1z" stroke="#5bf" stroke-width="3" fill-opacity="0"/><g><use xlink:href="#g" transform="matrix(1,0,0,1,935,758.8131454231889) translate(10.33333333333334 14.222222222222221)"/><use xlink:href="#r" transform="matrix(1,0,0,1,935,758.8131454231889) translate(39.91358024691358 14.222222222222221)"/></g><path d="M990 881h-13.73l-2.64.7-1.77 1.8-.72 2.63V979h-2v-93.13l.92-3.42 2.53-2.53 3.4-.92h14" fill="#5bf"/><path d="M971.14 980h-2v-1.03h2M1005.26 880L991 884.64v-9.28z" fill="#5bf"/><path d="M1008.5 880l-18.5 6v-12m2 9.26l10.03-3.26-10.03-3.26" fill="#5bf"/><path d="M1090 880c0 22.1-17.9 40-40 40s-40-17.9-40-40 17.9-40 40-40 40 17.9 40 40z" stroke="#5bf" stroke-width="3" fill-opacity="0"/><g><use xlink:href="#i" transform="matrix(1,0,0,1,1015,845) translate(8.358024691358029 38.28472222222222)"/></g><path d="M980 806c0-3.3 2.7-6 6-6h128c3.3 0 6 2.7 6 6v128c0 3.3-2.7 6-6 6H986c-3.3 0-6-2.7-6-6z" stroke="#000" stroke-opacity="0" stroke-width="3" fill="#ffbbb1" fill-opacity=".26"/><g><use xlink:href="#j" transform="matrix(1,0,0,1,985,805) translate(20.990740740740748 12.444444444444443)"/><use xlink:href="#k" transform="matrix(1,0,0,1,985,805) translate(42.595679012345684 12.444444444444443)"/><use xlink:href="#l" transform="matrix(1,0,0,1,985,805) translate(93.49691358024691 12.444444444444443)"/></g><path d="M1010 740.72c0 7.23-17.9 13.1-40 13.1s-40-5.87-40-13.1c0-7.23 17.9-13.1 40-13.1s40 5.87 40 13.1z" stroke="#5bf" stroke-width="3" fill-opacity="0"/><g><use xlink:href="#g" transform="matrix(1,0,0,1,935,732.626290846378) translate(10.33333333333334 14.222222222222221)"/><use xlink:href="#s" transform="matrix(1,0,0,1,935,732.626290846378) translate(39.91358024691358 14.222222222222221)"/></g><path d="M1010 713.1c0 7.22-17.9 13.1-40 13.1s-40-5.88-40-13.1c0-7.24 17.9-13.1 40-13.1s40 5.86 40 13.1z" stroke="#5bf" stroke-width="3" fill-opacity="0"/><g><use xlink:href="#g" transform="matrix(1,0,0,1,935,705) translate(10.33333333333334 14.222222222222221)"/><use xlink:href="#t" transform="matrix(1,0,0,1,935,705) translate(39.91358024691358 14.222222222222221)"/></g><path d="M1107.63 900l10.75-18.62-2.4-1.38-9.38 16.32-5.22-3.04-1.38 2.38 7.48 4.34.04-.08.1.08z" stroke="#000" stroke-opacity="0" fill="#92d050"/><defs><path fill="#5bf" d="M240 0l2-218c-23 76-54 145-80 218h-23L58-218 59 0H30v-248h44l77 211c21-75 51-140 76-211h43V0h-30" id="u"/><path fill="#5bf" d="M100-194c63 0 86 42 84 106H49c0 40 14 67 53 68 26 1 43-12 49-29l28 8c-11 28-37 45-77 45C44 4 14-33 15-96c1-61 26-98 85-98zm52 81c6-60-76-77-97-28-3 7-6 17-6 28h103" id="v"/><path fill="#5bf" d="M114-163C36-179 61-72 57 0H25l-1-190h30c1 12-1 29 2 39 6-27 23-49 58-41v29" id="w"/><path fill="#5bf" d="M177-190C167-65 218 103 67 71c-23-6-38-20-44-43l32-5c15 47 100 32 89-28v-30C133-14 115 1 83 1 29 1 15-40 15-95c0-56 16-97 71-98 29-1 48 16 59 35 1-10 0-23 2-32h30zM94-22c36 0 50-32 50-73 0-42-14-75-50-75-39 0-46 34-46 75s6 73 46 73" id="x"/><g id="a"><use transform="matrix(0.06172839506172839,0,0,0.06172839506172839,0,0)" xlink:href="#u"/><use transform="matrix(0.06172839506172839,0,0,0.06172839506172839,18.456790123456788,0)" xlink:href="#v"/><use transform="matrix(0.06172839506172839,0,0,0.06172839506172839,30.80246913580247,0)" xlink:href="#w"/><use transform="matrix(0.06172839506172839,0,0,0.06172839506172839,38.148148148148145,0)" xlink:href="#x"/><use transform="matrix(0.06172839506172839,0,0,0.06172839506172839,50.49382716049382,0)" xlink:href="#v"/></g><path fill="#5bf" d="M140-251c81 0 123 46 123 126C263-53 228-8 163 1c7 30 30 48 69 40v23c-55 16-95-15-103-61C56-3 17-48 17-125c0-80 42-126 123-126zm0 227c63 0 89-41 89-101s-29-99-89-99c-61 0-89 39-89 99S79-25 140-24" id="y"/><path fill="#5bf" d="M84 4C-5 8 30-112 23-190h32v120c0 31 7 50 39 49 72-2 45-101 50-169h31l1 190h-30c-1-10 1-25-2-33-11 22-28 36-60 37" id="z"/><path fill="#5bf" d="M68-36c1 33-1 63-14 82H32c9-13 17-26 17-46H33v-36h35zM33-154v-36h35v36H33" id="A"/><g id="b"><use transform="matrix(0.06172839506172839,0,0,0.06172839506172839,0,0)" xlink:href="#y"/><use transform="matrix(0.06172839506172839,0,0,0.06172839506172839,17.28395061728395,0)" xlink:href="#z"/><use transform="matrix(0.06172839506172839,0,0,0.06172839506172839,29.629629629629626,0)" xlink:href="#v"/><use transform="matrix(0.06172839506172839,0,0,0.06172839506172839,41.9753086419753,0)" xlink:href="#z"/><use transform="matrix(0.06172839506172839,0,0,0.06172839506172839,54.32098765432098,0)" xlink:href="#v"/><use transform="matrix(0.06172839506172839,0,0,0.06172839506172839,66.66666666666666,0)" xlink:href="#A"/></g><path fill="#5bf" d="M190 0L58-211 59 0H30v-248h39L202-35l-2-213h31V0h-41" id="B"/><path fill="#5bf" d="M100-194c62-1 85 37 85 99 1 63-27 99-86 99S16-35 15-95c0-66 28-99 85-99zM99-20c44 1 53-31 53-75 0-43-8-75-51-75s-53 32-53 75 10 74 51 75" id="C"/><g id="c"><use transform="matrix(0.06172839506172839,0,0,0.06172839506172839,0,0)" xlink:href="#B"/><use transform="matrix(0.06172839506172839,0,0,0.06172839506172839,15.987654320987653,0)" xlink:href="#C"/></g><path fill="#5bf" d="M160-131c35 5 61 23 61 61C221 17 115-2 30 0v-248c76 3 177-17 177 60 0 33-19 50-47 57zm-97-11c50-1 110 9 110-42 0-47-63-36-110-37v79zm0 115c55-2 124 14 124-45 0-56-70-42-124-44v89" id="D"/><path fill="#5bf" d="M141-36C126-15 110 5 73 4 37 3 15-17 15-53c-1-64 63-63 125-63 3-35-9-54-41-54-24 1-41 7-42 31l-33-3c5-37 33-52 76-52 45 0 72 20 72 64v82c-1 20 7 32 28 27v20c-31 9-61-2-59-35zM48-53c0 20 12 33 32 33 41-3 63-29 60-74-43 2-92-5-92 41" id="E"/><path fill="#5bf" d="M59-47c-2 24 18 29 38 22v24C64 9 27 4 27-40v-127H5v-23h24l9-43h21v43h35v23H59v120" id="F"/><path fill="#5bf" d="M96-169c-40 0-48 33-48 73s9 75 48 75c24 0 41-14 43-38l32 2c-6 37-31 61-74 61-59 0-76-41-82-99-10-93 101-131 147-64 4 7 5 14 7 22l-32 3c-4-21-16-35-41-35" id="G"/><path fill="#5bf" d="M106-169C34-169 62-67 57 0H25v-261h32l-1 103c12-21 28-36 61-36 89 0 53 116 60 194h-32v-121c2-32-8-49-39-48" id="H"/><path fill="#5bf" d="M24-231v-30h32v30H24zM24 0v-190h32V0H24" id="I"/><path fill="#5bf" d="M117-194c89-4 53 116 60 194h-32v-121c0-31-8-49-39-48C34-167 62-67 57 0H25l-1-190h30c1 10-1 24 2 32 11-22 29-35 61-36" id="J"/><g id="d"><use transform="matrix(0.06172839506172839,0,0,0.06172839506172839,0,0)" xlink:href="#D"/><use transform="matrix(0.06172839506172839,0,0,0.06172839506172839,14.814814814814813,0)" xlink:href="#E"/><use transform="matrix(0.06172839506172839,0,0,0.06172839506172839,27.160493827160494,0)" xlink:href="#F"/><use transform="matrix(0.06172839506172839,0,0,0.06172839506172839,33.333333333333336,0)" xlink:href="#G"/><use transform="matrix(0.06172839506172839,0,0,0.06172839506172839,44.44444444444444,0)" xlink:href="#H"/><use transform="matrix(0.06172839506172839,0,0,0.06172839506172839,56.79012345679012,0)" xlink:href="#I"/><use transform="matrix(0.06172839506172839,0,0,0.06172839506172839,61.666666666666664,0)" xlink:href="#J"/><use transform="matrix(0.06172839506172839,0,0,0.06172839506172839,74.01234567901234,0)" xlink:href="#x"/></g><path fill="#5bf" d="M220-157c-53 9-28 100-34 157h-49v-107c1-27-5-49-29-50C55-147 81-57 75 0H25l-1-190h47c2 12-1 28 3 38 10-53 101-56 108 0 13-22 24-43 59-42 82 1 51 116 57 194h-49v-107c-1-25-5-48-29-50" id="K"/><path fill="#5bf" d="M133-34C117-15 103 5 69 4 32 3 11-16 11-54c-1-60 55-63 116-61 1-26-3-47-28-47-18 1-26 9-28 27l-52-2c7-38 36-58 82-57s74 22 75 68l1 82c-1 14 12 18 25 15v27c-30 8-71 5-69-32zm-48 3c29 0 43-24 42-57-32 0-66-3-65 30 0 17 8 27 23 27" id="L"/><path fill="#5bf" d="M25-224v-37h50v37H25zM25 0v-190h50V0H25" id="M"/><path fill="#5bf" d="M135-194c87-1 58 113 63 194h-50c-7-57 23-157-34-157-59 0-34 97-39 157H25l-1-190h47c2 12-1 28 3 38 12-26 28-41 61-42" id="N"/><g id="e"><use transform="matrix(0.04938271604938272,0,0,0.04938271604938272,0,0)" xlink:href="#K"/><use transform="matrix(0.04938271604938272,0,0,0.04938271604938272,15.80246913580247,0)" xlink:href="#L"/><use transform="matrix(0.04938271604938272,0,0,0.04938271604938272,25.679012345679016,0)" xlink:href="#M"/><use transform="matrix(0.04938271604938272,0,0,0.04938271604938272,30.617283950617285,0)" xlink:href="#N"/></g><path fill="#5bf" d="M185-48c-13 30-37 53-82 52C43 2 14-33 14-96s30-98 90-98c62 0 83 45 84 108H66c0 31 8 55 39 56 18 0 30-7 34-22zm-45-69c5-46-57-63-70-21-2 6-4 13-4 21h74" id="O"/><path fill="#5bf" d="M135-150c-39-12-60 13-60 57V0H25l-1-190h47c2 13-1 29 3 40 6-28 27-53 61-41v41" id="P"/><path fill="#5bf" d="M195-6C206 82 75 100 31 46c-4-6-6-13-8-21l49-6c3 16 16 24 34 25 40 0 42-37 40-79-11 22-30 35-61 35-53 0-70-43-70-97 0-56 18-96 73-97 30 0 46 14 59 34l2-30h47zm-90-29c32 0 41-27 41-63 0-35-9-62-40-62-32 0-39 29-40 63 0 36 9 62 39 62" id="Q"/><g id="f"><use transform="matrix(0.04938271604938272,0,0,0.04938271604938272,0,0)" xlink:href="#K"/><use transform="matrix(0.04938271604938272,0,0,0.04938271604938272,15.80246913580247,0)" xlink:href="#O"/><use transform="matrix(0.04938271604938272,0,0,0.04938271604938272,25.679012345679016,0)" xlink:href="#P"/><use transform="matrix(0.04938271604938272,0,0,0.04938271604938272,32.592592592592595,0)" xlink:href="#Q"/><use transform="matrix(0.04938271604938272,0,0,0.04938271604938272,43.40740740740741,0)" xlink:href="#O"/></g><path fill="#5bf" d="M30-248c87 1 191-15 191 75 0 78-77 80-158 76V0H30v-248zm33 125c57 0 124 11 124-50 0-59-68-47-124-48v98" id="R"/><path fill="#5bf" d="M233-177c-1 41-23 64-60 70L243 0h-38l-65-103H63V0H30v-248c88 3 205-21 203 71zM63-129c60-2 137 13 137-47 0-61-80-42-137-45v92" id="S"/><g id="g"><use transform="matrix(0.049382716049382706,0,0,0.049382716049382706,0,0)" xlink:href="#R"/><use transform="matrix(0.049382716049382706,0,0,0.049382716049382706,11.85185185185185,0)" xlink:href="#S"/></g><path fill="#5bf" d="M158-156l-14 65h45v19h-49L124 0h-19l15-72H56L41 0H22l15-72H2v-19h39l14-65H11v-19h48l15-71h20l-16 71h64l16-71h19l-16 71h37v19h-40zm-83 0L61-91h63l14-65H75" id="T"/><path fill="#5bf" d="M27 0v-27h64v-190l-56 39v-29l58-41h29v221h61V0H27" id="U"/><g id="h"><use transform="matrix(0.049382716049382706,0,0,0.049382716049382706,0,0)" xlink:href="#T"/><use transform="matrix(0.049382716049382706,0,0,0.049382716049382706,9.87654320987654,0)" xlink:href="#U"/></g><path fill="#5bf" d="M179-190L93 31C79 59 56 82 12 73V49c39 6 53-20 64-50L1-190h34L92-34l54-156h33" id="V"/><g id="i"><use transform="matrix(0.049382716049382706,0,0,0.049382716049382706,0,0)" xlink:href="#G"/><use transform="matrix(0.049382716049382706,0,0,0.049382716049382706,8.888888888888888,0)" xlink:href="#E"/><use transform="matrix(0.049382716049382706,0,0,0.049382716049382706,18.76543209876543,0)" xlink:href="#J"/><use transform="matrix(0.049382716049382706,0,0,0.049382716049382706,28.64197530864197,0)" xlink:href="#E"/><use transform="matrix(0.049382716049382706,0,0,0.049382716049382706,38.51851851851851,0)" xlink:href="#w"/><use transform="matrix(0.049382716049382706,0,0,0.049382716049382706,44.395061728395056,0)" xlink:href="#V"/></g><path fill="red" d="M126-127c33 6 58 20 58 59 0 88-139 92-164 29-3-8-5-16-6-25l32-3c6 27 21 44 54 44 32 0 52-15 52-46 0-38-36-46-79-43v-28c39 1 72-4 72-42 0-27-17-43-46-43-28 0-47 15-49 41l-32-3c6-42 35-63 81-64 48-1 79 21 79 65 0 36-21 52-52 59" id="W"/><path fill="red" d="M101-251c68 0 85 55 85 127S166 4 100 4C33 4 14-52 14-124c0-73 17-127 87-127zm-1 229c47 0 54-49 54-102s-4-102-53-102c-51 0-55 48-55 102 0 53 5 102 54 102" id="X"/><g id="j"><use transform="matrix(0.04320987654320987,0,0,0.04320987654320987,0,0)" xlink:href="#W"/><use transform="matrix(0.04320987654320987,0,0,0.04320987654320987,8.641975308641973,0)" xlink:href="#X"/></g><path fill="red" d="M210-169c-67 3-38 105-44 169h-31v-121c0-29-5-50-35-48C34-165 62-65 56 0H25l-1-190h30c1 10-1 24 2 32 10-44 99-50 107 0 11-21 27-35 58-36 85-2 47 119 55 194h-31v-121c0-29-5-49-35-48" id="Y"/><path fill="red" d="M24-231v-30h32v30H24zM24 0v-190h32V0H24" id="Z"/><path fill="red" d="M117-194c89-4 53 116 60 194h-32v-121c0-31-8-49-39-48C34-167 62-67 57 0H25l-1-190h30c1 10-1 24 2 32 11-22 29-35 61-36" id="aa"/><path fill="red" d="M84 4C-5 8 30-112 23-190h32v120c0 31 7 50 39 49 72-2 45-101 50-169h31l1 190h-30c-1-10 1-25-2-33-11 22-28 36-60 37" id="ab"/><path fill="red" d="M59-47c-2 24 18 29 38 22v24C64 9 27 4 27-40v-127H5v-23h24l9-43h21v43h35v23H59v120" id="ac"/><path fill="red" d="M100-194c63 0 86 42 84 106H49c0 40 14 67 53 68 26 1 43-12 49-29l28 8c-11 28-37 45-77 45C44 4 14-33 15-96c1-61 26-98 85-98zm52 81c6-60-76-77-97-28-3 7-6 17-6 28h103" id="ad"/><g id="k"><use transform="matrix(0.04320987654320987,0,0,0.04320987654320987,0,0)" xlink:href="#Y"/><use transform="matrix(0.04320987654320987,0,0,0.04320987654320987,12.91975308641975,0)" xlink:href="#Z"/><use transform="matrix(0.04320987654320987,0,0,0.04320987654320987,16.33333333333333,0)" xlink:href="#aa"/><use transform="matrix(0.04320987654320987,0,0,0.04320987654320987,24.975308641975303,0)" xlink:href="#ab"/><use transform="matrix(0.04320987654320987,0,0,0.04320987654320987,33.61728395061728,0)" xlink:href="#ac"/><use transform="matrix(0.04320987654320987,0,0,0.04320987654320987,37.938271604938265,0)" xlink:href="#ad"/></g><path fill="red" d="M212-179c-10-28-35-45-73-45-59 0-87 40-87 99 0 60 29 101 89 101 43 0 62-24 78-52l27 14C228-24 195 4 139 4 59 4 22-46 18-125c-6-104 99-153 187-111 19 9 31 26 39 46" id="ae"/><path fill="red" d="M33 0v-248h34V0H33" id="af"/><g id="l"><use transform="matrix(0.04320987654320987,0,0,0.04320987654320987,0,0)" xlink:href="#ae"/><use transform="matrix(0.04320987654320987,0,0,0.04320987654320987,11.191358024691356,0)" xlink:href="#af"/></g><path fill="#5bf" d="M101-251c82-7 93 87 43 132L82-64C71-53 59-42 53-27h129V0H18c2-99 128-94 128-182 0-28-16-43-45-43s-46 15-49 41l-32-3c6-41 34-60 81-64" id="ag"/><g id="m"><use transform="matrix(0.049382716049382706,0,0,0.049382716049382706,0,0)" xlink:href="#T"/><use transform="matrix(0.049382716049382706,0,0,0.049382716049382706,9.87654320987654,0)" xlink:href="#ag"/></g><path fill="#5bf" d="M126-127c33 6 58 20 58 59 0 88-139 92-164 29-3-8-5-16-6-25l32-3c6 27 21 44 54 44 32 0 52-15 52-46 0-38-36-46-79-43v-28c39 1 72-4 72-42 0-27-17-43-46-43-28 0-47 15-49 41l-32-3c6-42 35-63 81-64 48-1 79 21 79 65 0 36-21 52-52 59" id="ah"/><g id="n"><use transform="matrix(0.049382716049382706,0,0,0.049382716049382706,0,0)" xlink:href="#T"/><use transform="matrix(0.049382716049382706,0,0,0.049382716049382706,9.87654320987654,0)" xlink:href="#ah"/></g><path fill="#5bf" d="M110-160c48 1 74 30 74 79 0 53-28 85-80 85-65 0-83-55-86-122-5-90 50-162 133-122 14 7 22 21 27 39l-31 6c-5-40-67-38-82-6-9 19-15 44-15 74 11-20 30-34 60-33zm-7 138c34 0 49-23 49-58s-16-56-50-56c-29 0-50 16-49 49 1 36 15 65 50 65" id="ai"/><g id="o"><use transform="matrix(0.049382716049382706,0,0,0.049382716049382706,0,0)" xlink:href="#T"/><use transform="matrix(0.049382716049382706,0,0,0.049382716049382706,9.87654320987654,0)" xlink:href="#ai"/></g><path fill="#5bf" d="M54-142c48-35 137-8 131 61C196 18 31 33 14-55l32-4c7 23 22 37 52 37 35-1 51-22 54-58 4-55-73-65-99-34H22l8-134h141v27H59" id="aj"/><g id="p"><use transform="matrix(0.049382716049382706,0,0,0.049382716049382706,0,0)" xlink:href="#T"/><use transform="matrix(0.049382716049382706,0,0,0.049382716049382706,9.87654320987654,0)" xlink:href="#aj"/></g><path fill="#5bf" d="M155-56V0h-30v-56H8v-25l114-167h33v167h35v25h-35zm-30-156c-27 46-58 90-88 131h88v-131" id="ak"/><g id="q"><use transform="matrix(0.049382716049382706,0,0,0.049382716049382706,0,0)" xlink:href="#T"/><use transform="matrix(0.049382716049382706,0,0,0.049382716049382706,9.87654320987654,0)" xlink:href="#ak"/></g><path fill="#5bf" d="M99-251c64 0 84 50 84 122C183-37 130 33 47-8c-14-7-20-23-25-40l30-5c6 39 69 39 84 7 9-19 16-44 16-74-10 22-31 35-62 35-49 0-73-33-73-83 0-54 28-83 82-83zm-1 141c31-1 51-18 51-49 0-36-14-67-51-67-34 0-49 23-49 58 0 34 15 58 49 58" id="al"/><g id="r"><use transform="matrix(0.049382716049382706,0,0,0.049382716049382706,0,0)" xlink:href="#T"/><use transform="matrix(0.049382716049382706,0,0,0.049382716049382706,9.87654320987654,0)" xlink:href="#al"/></g><path fill="#5bf" d="M134-131c28 9 52 24 51 62-1 50-34 73-85 73S17-19 16-69c0-36 21-54 49-61-75-25-45-126 34-121 46 3 78 18 79 63 0 33-17 51-44 57zm-34-11c31 1 46-15 46-44 0-28-17-43-47-42-29 0-46 13-45 42 1 28 16 44 46 44zm1 122c35 0 51-18 51-52 0-30-18-46-53-46-33 0-51 17-51 47 0 34 19 51 53 51" id="am"/><g id="s"><use transform="matrix(0.049382716049382706,0,0,0.049382716049382706,0,0)" xlink:href="#T"/><use transform="matrix(0.049382716049382706,0,0,0.049382716049382706,9.87654320987654,0)" xlink:href="#am"/></g><path fill="#5bf" d="M64 0c3-98 48-159 88-221H18v-27h164v26C143-157 98-101 97 0H64" id="an"/><g id="t"><use transform="matrix(0.049382716049382706,0,0,0.049382716049382706,0,0)" xlink:href="#T"/><use transform="matrix(0.049382716049382706,0,0,0.049382716049382706,9.87654320987654,0)" xlink:href="#an"/></g></defs></g></svg>