<svg xmlns="http://www.w3.org/2000/svg" xmlns:xlink="http://www.w3.org/1999/xlink" xmlns:lucid="lucid" width="649.37" height="285.45"><g transform="translate(-551.6296296296297 -520)" lucid:page-tab-id="6nIsPfWk~uuK"><path d="M591 769.12h560.5M591.03 769.12H590" stroke="#5bf" stroke-width="2" fill="none"/><path d="M1166.76 769.12l-14.26 4.64v-9.28z" stroke="#5bf" stroke-width="2" fill="#5bf"/><use xlink:href="#a" transform="matrix(1,0,0,1,859.283950617284,773.1200870393037) translate(0 14.222222222222223)"/><path d="M830 590.88H635.74c-3.3 0-6 2.7-6 6v171.24" stroke="#5bf" stroke-width="2" fill="none"/><path d="M845.26 590.88L831 595.52v-9.28z" stroke="#5bf" stroke-width="2" fill="#5bf"/><path d="M629.74 768.1v1.02M690 649.12h-54.26c-3.3 0-6 2.7-6 6v113" stroke="#5bf" stroke-width="2" fill="none"/><path d="M705.26 649.12L691 653.76v-9.28z" stroke="#5bf" stroke-width="2" fill="#5bf"/><path d="M629.74 768.1v1.02" stroke="#5bf" stroke-width="2" fill="none"/><use xlink:href="#b" transform="matrix(1,0,0,1,562.6296296296297,691.8532694600216) translate(0 14.222222222222223)"/><path d="M792.5 649.12h67.72c3.32 0 6 2.7 6 6v95.5" stroke="#5bf" stroke-width="2" fill="none"/><path d="M792.53 650.12h-1.1l.07-.98-.03-1.02h1.06" fill="#5bf"/><path d="M866.22 765.88l-4.63-14.26h9.26z" stroke="#5bf" stroke-width="2" fill="#5bf"/><path d="M932.5 590.88h51.34c3.32 0 6 2.7 6 6v153.74" stroke="#5bf" stroke-width="2" fill="none"/><path d="M932.53 591.88h-1.1l.07-.98-.03-1.02h1.06" fill="#5bf"/><path d="M989.84 765.88l-4.63-14.26h9.28z" stroke="#5bf" stroke-width="2" fill="#5bf"/><use xlink:href="#c" transform="matrix(1,0,0,1,997.8434166195939,693.4272068520658) translate(0 14.222222222222223)"/><path d="M790 649.12c0 22.1-17.9 40-40 40s-40-17.9-40-40 17.9-40 40-40 40 17.9 40 40z" stroke="#5bf" stroke-width="3" fill-opacity="0"/><use xlink:href="#d" transform="matrix(1,0,0,1,715,614.1200870393037) translate(19.227222222222224 27.34722222222222)"/><use xlink:href="#e" transform="matrix(1,0,0,1,715,614.1200870393037) translate(16.777777777777782 48.68055555555555)"/><path d="M798.3 630.88l11.7-20.26-2.6-1.5-10.22 17.76-5.68-3.3-1.5 2.58 8.14 4.72.04-.1.12.1z" stroke="#000" stroke-opacity="0" fill="#92d050"/><path d="M930 590.88c0 22.1-17.9 40-40 40s-40-17.9-40-40 17.9-40 40-40 40 17.9 40 40z" stroke="#5bf" stroke-width="3" fill-opacity="0"/><use xlink:href="#f" transform="matrix(1,0,0,1,855,555.8799129606963) translate(1.4691358024691397 28.23222222222222)"/><use xlink:href="#g" transform="matrix(1,0,0,1,855,555.8799129606963) translate(16.78277777777778 49.565555555555555)"/><path d="M938.3 561.76L950 541.5l-2.6-1.5-10.22 17.76-5.68-3.3-1.5 2.58 8.14 4.72.04-.1.12.1z" stroke="#000" stroke-opacity="0" fill="#92d050"/><path d="M1039.7 741.57l7.73 9.3c-2-3.75-4.24-7.4-6.64-10.9 2.4-3.47 4.62-7.13 6.63-10.85l-7.72 9.3c-1.93-2.75-4.04-5.36-6.2-7.9-1.1-.55-2.3-.8-3.5-.73l8.38 10.16-8.38 10.16c1.2.1 2.4-.1 3.5-.74 2.22-2.46 4.27-5.07 6.2-7.8z" fill="red"/><defs><path fill="#5bf" d="M220-157c-53 9-28 100-34 157h-49v-107c1-27-5-49-29-50C55-147 81-57 75 0H25l-1-190h47c2 12-1 28 3 38 10-53 101-56 108 0 13-22 24-43 59-42 82 1 51 116 57 194h-49v-107c-1-25-5-48-29-50" id="h"/><path fill="#5bf" d="M133-34C117-15 103 5 69 4 32 3 11-16 11-54c-1-60 55-63 116-61 1-26-3-47-28-47-18 1-26 9-28 27l-52-2c7-38 36-58 82-57s74 22 75 68l1 82c-1 14 12 18 25 15v27c-30 8-71 5-69-32zm-48 3c29 0 43-24 42-57-32 0-66-3-65 30 0 17 8 27 23 27" id="i"/><path fill="#5bf" d="M25-224v-37h50v37H25zM25 0v-190h50V0H25" id="j"/><path fill="#5bf" d="M135-194c87-1 58 113 63 194h-50c-7-57 23-157-34-157-59 0-34 97-39 157H25l-1-190h47c2 12-1 28 3 38 12-26 28-41 61-42" id="k"/><g id="a"><use transform="matrix(0.04938271604938272,0,0,0.04938271604938272,0,0)" xlink:href="#h"/><use transform="matrix(0.04938271604938272,0,0,0.04938271604938272,15.80246913580247,0)" xlink:href="#i"/><use transform="matrix(0.04938271604938272,0,0,0.04938271604938272,25.679012345679016,0)" xlink:href="#j"/><use transform="matrix(0.04938271604938272,0,0,0.04938271604938272,30.617283950617285,0)" xlink:href="#k"/></g><path fill="#5bf" d="M135-194c52 0 70 43 70 98 0 56-19 99-73 100-30 1-46-15-58-35L72 0H24l1-261h50v104c11-23 29-37 60-37zM114-30c31 0 40-27 40-66 0-37-7-63-39-63s-41 28-41 65c0 36 8 64 40 64" id="l"/><path fill="#5bf" d="M135-150c-39-12-60 13-60 57V0H25l-1-190h47c2 13-1 29 3 40 6-28 27-53 61-41v41" id="m"/><path fill="#5bf" d="M190-63c-7 42-38 67-86 67-59 0-84-38-90-98-12-110 154-137 174-36l-49 2c-2-19-15-32-35-32-30 0-35 28-38 64-6 74 65 87 74 30" id="n"/><path fill="#5bf" d="M114-157C55-157 80-60 75 0H25v-261h50l-1 109c12-26 28-41 61-42 86-1 58 113 63 194h-50c-7-57 23-157-34-157" id="o"/><g id="b"><use transform="matrix(0.04938271604938272,0,0,0.04938271604938272,0,0)" xlink:href="#l"/><use transform="matrix(0.04938271604938272,0,0,0.04938271604938272,10.814814814814815,0)" xlink:href="#m"/><use transform="matrix(0.04938271604938272,0,0,0.04938271604938272,17.728395061728396,0)" xlink:href="#i"/><use transform="matrix(0.04938271604938272,0,0,0.04938271604938272,27.60493827160494,0)" xlink:href="#k"/><use transform="matrix(0.04938271604938272,0,0,0.04938271604938272,38.41975308641975,0)" xlink:href="#n"/><use transform="matrix(0.04938271604938272,0,0,0.04938271604938272,48.2962962962963,0)" xlink:href="#o"/></g><path fill="#5bf" d="M185-48c-13 30-37 53-82 52C43 2 14-33 14-96s30-98 90-98c62 0 83 45 84 108H66c0 31 8 55 39 56 18 0 30-7 34-22zm-45-69c5-46-57-63-70-21-2 6-4 13-4 21h74" id="p"/><path fill="#5bf" d="M195-6C206 82 75 100 31 46c-4-6-6-13-8-21l49-6c3 16 16 24 34 25 40 0 42-37 40-79-11 22-30 35-61 35-53 0-70-43-70-97 0-56 18-96 73-97 30 0 46 14 59 34l2-30h47zm-90-29c32 0 41-27 41-63 0-35-9-62-40-62-32 0-39 29-40 63 0 36 9 62 39 62" id="q"/><g id="c"><use transform="matrix(0.04938271604938272,0,0,0.04938271604938272,0,0)" xlink:href="#h"/><use transform="matrix(0.04938271604938272,0,0,0.04938271604938272,15.80246913580247,0)" xlink:href="#p"/><use transform="matrix(0.04938271604938272,0,0,0.04938271604938272,25.679012345679016,0)" xlink:href="#m"/><use transform="matrix(0.04938271604938272,0,0,0.04938271604938272,32.592592592592595,0)" xlink:href="#q"/><use transform="matrix(0.04938271604938272,0,0,0.04938271604938272,43.40740740740741,0)" xlink:href="#p"/></g><path fill="#5bf" d="M232-93c-1 65-40 97-104 97C67 4 28-28 28-90v-158h33c8 89-33 224 67 224 102 0 64-133 71-224h33v155" id="r"/><path fill="#5bf" d="M135-143c-3-34-86-38-87 0 15 53 115 12 119 90S17 21 10-45l28-5c4 36 97 45 98 0-10-56-113-15-118-90-4-57 82-63 122-42 12 7 21 19 24 35" id="s"/><path fill="#5bf" d="M100-194c63 0 86 42 84 106H49c0 40 14 67 53 68 26 1 43-12 49-29l28 8c-11 28-37 45-77 45C44 4 14-33 15-96c1-61 26-98 85-98zm52 81c6-60-76-77-97-28-3 7-6 17-6 28h103" id="t"/><g id="d"><use transform="matrix(0.049382716049382706,0,0,0.049382716049382706,0,0)" xlink:href="#r"/><use transform="matrix(0.049382716049382706,0,0,0.049382716049382706,12.790123456790122,0)" xlink:href="#s"/><use transform="matrix(0.049382716049382706,0,0,0.049382716049382706,21.67901234567901,0)" xlink:href="#t"/></g><path fill="#5bf" d="M101-234c-31-9-42 10-38 44h38v23H63V0H32v-167H5v-23h27c-7-52 17-82 69-68v24" id="u"/><path fill="#5bf" d="M100-194c62-1 85 37 85 99 1 63-27 99-86 99S16-35 15-95c0-66 28-99 85-99zM99-20c44 1 53-31 53-75 0-43-8-75-51-75s-53 32-53 75 10 74 51 75" id="v"/><path fill="#5bf" d="M87 75C49 33 22-17 22-94c0-76 28-126 65-167h31c-38 41-64 92-64 168S80 34 118 75H87" id="w"/><path fill="#5bf" d="M33-261c38 41 65 92 65 168S71 34 33 75H2C39 34 66-17 66-93S39-220 2-261h31" id="x"/><g id="e"><use transform="matrix(0.049382716049382706,0,0,0.049382716049382706,0,0)" xlink:href="#u"/><use transform="matrix(0.049382716049382706,0,0,0.049382716049382706,4.93827160493827,0)" xlink:href="#v"/><use transform="matrix(0.049382716049382706,0,0,0.049382716049382706,14.814814814814811,0)" xlink:href="#v"/><use transform="matrix(0.049382716049382706,0,0,0.049382716049382706,24.691358024691354,0)" xlink:href="#w"/><use transform="matrix(0.049382716049382706,0,0,0.049382716049382706,30.567901234567895,0)" xlink:href="#x"/></g><path fill="#5bf" d="M233-177c-1 41-23 64-60 70L243 0h-38l-65-103H63V0H30v-248c88 3 205-21 203 71zM63-129c60-2 137 13 137-47 0-61-80-42-137-45v92" id="y"/><path fill="#5bf" d="M117-194c89-4 53 116 60 194h-32v-121c0-31-8-49-39-48C34-167 62-67 57 0H25l-1-190h30c1 10-1 24 2 32 11-22 29-35 61-36" id="z"/><path fill="#5bf" d="M141-36C126-15 110 5 73 4 37 3 15-17 15-53c-1-64 63-63 125-63 3-35-9-54-41-54-24 1-41 7-42 31l-33-3c5-37 33-52 76-52 45 0 72 20 72 64v82c-1 20 7 32 28 27v20c-31 9-61-2-59-35zM48-53c0 20 12 33 32 33 41-3 63-29 60-74-43 2-92-5-92 41" id="A"/><path fill="#5bf" d="M210-169c-67 3-38 105-44 169h-31v-121c0-29-5-50-35-48C34-165 62-65 56 0H25l-1-190h30c1 10-1 24 2 32 10-44 99-50 107 0 11-21 27-35 58-36 85-2 47 119 55 194h-31v-121c0-29-5-49-35-48" id="B"/><g id="f"><use transform="matrix(0.049382716049382706,0,0,0.049382716049382706,0,0)" xlink:href="#y"/><use transform="matrix(0.049382716049382706,0,0,0.049382716049382706,12.790123456790122,0)" xlink:href="#t"/><use transform="matrix(0.049382716049382706,0,0,0.049382716049382706,22.666666666666664,0)" xlink:href="#z"/><use transform="matrix(0.049382716049382706,0,0,0.049382716049382706,32.5432098765432,0)" xlink:href="#A"/><use transform="matrix(0.049382716049382706,0,0,0.049382716049382706,42.419753086419746,0)" xlink:href="#B"/><use transform="matrix(0.049382716049382706,0,0,0.049382716049382706,57.185185185185176,0)" xlink:href="#t"/></g><g id="g"><use transform="matrix(0.049382716049382706,0,0,0.049382716049382706,0,0)" xlink:href="#u"/><use transform="matrix(0.049382716049382706,0,0,0.049382716049382706,4.93827160493827,0)" xlink:href="#v"/><use transform="matrix(0.049382716049382706,0,0,0.049382716049382706,14.814814814814811,0)" xlink:href="#v"/><use transform="matrix(0.049382716049382706,0,0,0.049382716049382706,24.691358024691354,0)" xlink:href="#w"/><use transform="matrix(0.049382716049382706,0,0,0.049382716049382706,30.567901234567895,0)" xlink:href="#x"/></g></defs></g></svg>