<svg xmlns="http://www.w3.org/2000/svg" xmlns:xlink="http://www.w3.org/1999/xlink" xmlns:lucid="lucid" width="655.05" height="285.45"><g transform="translate(-551.6296296296297 -520)" lucid:page-tab-id="FyIsW8vycUtd"><path d="M591 769.12h560.5M591.03 769.12H590" stroke="#5bf" stroke-width="2" fill="none"/><path d="M1166.76 769.12l-14.26 4.64v-9.28z" stroke="#5bf" stroke-width="2" fill="#5bf"/><use xlink:href="#a" transform="matrix(1,0,0,1,859.283950617284,773.1200870393037) translate(0 14.222222222222223)"/><path d="M900 590.88h-9.8m-9.78 0h-19.57m-9.8 0H831.5m-9.8 0h-19.58m-9.78 0h-19.58m-9.78 0H743.4m-9.8 0h-19.56m-9.8 0H684.7m-9.8 0h-19.56m-9.8 0h-9.78l-3.03.82-2.14 2.15-.82 3.03v9.5m0 9.53v19.03m0 9.52v19.02m0 9.52v19m0 9.53v19.02m0 9.52v19.02m0 9.5v9.52" stroke="#5bf" stroke-width="2" fill="none"/><path d="M915.26 590.88L901 595.52v-9.28z" stroke="#5bf" stroke-width="2" fill="#5bf"/><path d="M629.74 768.1v1.02M690 649.12h-54.26c-3.3 0-6 2.7-6 6v113" stroke="#5bf" stroke-width="2" fill="none"/><path d="M705.26 649.12L691 653.76v-9.28z" stroke="#5bf" stroke-width="2" fill="#5bf"/><path d="M629.74 768.1v1.02" stroke="#5bf" stroke-width="2" fill="none"/><use xlink:href="#b" transform="matrix(1,0,0,1,562.6296296296297,691.8532694600216) translate(0 14.222222222222223)"/><path d="M792.5 649.12h67.72c3.32 0 6 2.7 6 6v95.5" stroke="#5bf" stroke-width="2" fill="none"/><path d="M792.53 650.12h-1.1l.07-.98-.03-1.02h1.06" fill="#5bf"/><path d="M866.22 765.88l-4.63-14.26h9.26z" stroke="#5bf" stroke-width="2" fill="#5bf"/><path d="M1002.5 590.88h14.92" stroke="#5bf" stroke-width="2" fill="none"/><path d="M1002.53 591.88h-1.1l.07-.98-.03-1.02h1.06" fill="#5bf"/><path d="M1032.7 590.88l-14.28 4.64v-9.28z" stroke="#5bf" stroke-width="2" fill="#5bf"/><path d="M1119.93 590.88h8.47c3.3 0 6 2.7 6 6v153.74" stroke="#5bf" stroke-width="2" fill="none"/><path d="M1119.95 591.88h-1.08l.06-.98-.04-1.02h1.05" fill="#5bf"/><path d="M1134.4 765.88l-4.63-14.26h9.27z" stroke="#5bf" stroke-width="2" fill="#5bf"/><use xlink:href="#c" transform="matrix(1,0,0,1,1142.4005808914892,698.397599082092) translate(0 14.222222222222223)"/><path d="M790 649.12c0 22.1-17.9 40-40 40s-40-17.9-40-40 17.9-40 40-40 40 17.9 40 40z" stroke="#5bf" stroke-width="3" fill-opacity="0"/><use xlink:href="#d" transform="matrix(1,0,0,1,715,614.1200870393037) translate(19.227222222222224 27.34722222222222)"/><use xlink:href="#e" transform="matrix(1,0,0,1,715,614.1200870393037) translate(16.777777777777782 48.68055555555555)"/><path d="M798.3 630.88l11.7-20.26-2.6-1.5-10.22 17.76-5.68-3.3-1.5 2.58 8.14 4.72.04-.1.12.1zM1163.64 745.85l11.7-20.26-2.6-1.5-10.22 17.75-5.68-3.3-1.5 2.58 8.14 4.72.04-.1.12.1z" stroke="#000" stroke-opacity="0" fill="#92d050"/><path d="M900 590.88h-5.5c-3.3 0-6 2.7-6 6v171.24" stroke="#5bf" stroke-width="2" fill="none"/><path d="M915.26 590.88L901 595.52v-9.28z" stroke="#5bf" stroke-width="2" fill="#5bf"/><path d="M888.5 768.1v1.02" stroke="#5bf" stroke-width="2" fill="none"/><use xlink:href="#f" transform="matrix(1,0,0,1,896.4990644204673,678.3437060609645) translate(0 14.222222222222223)"/><use xlink:href="#g" transform="matrix(1,0,0,1,896.4990644204673,678.3437060609645) translate(0 35.55555555555556)"/><path d="M1000 590.88c0 22.1-17.9 40-40 40s-40-17.9-40-40 17.9-40 40-40 40 17.9 40 40z" stroke="#5bf" stroke-width="3" fill-opacity="0"/><use xlink:href="#h" transform="matrix(1,0,0,1,925,555.8799129606963) translate(1.4691358024691397 28.23222222222222)"/><use xlink:href="#i" transform="matrix(1,0,0,1,925,555.8799129606963) translate(16.78277777777778 49.565555555555555)"/><path d="M1125.73 561.76l11.7-20.26-2.6-1.5-10.22 17.76-5.67-3.3-1.5 2.58 8.14 4.72.04-.1.13.1z" stroke="#000" stroke-opacity="0" fill="#92d050"/><path d="M1009.7 552.45l7.73 9.3c-2-3.75-4.24-7.4-6.64-10.9 2.4-3.47 4.62-7.13 6.63-10.85l-7.72 9.3c-1.93-2.75-4.04-5.36-6.2-7.9-1.1-.55-2.3-.8-3.5-.73l8.38 10.17L1000 561c1.2.1 2.4-.1 3.5-.74 2.22-2.46 4.27-5.07 6.2-7.8z" fill="red"/><path d="M1117.43 590.88c0 22.1-17.9 40-40 40s-40-17.9-40-40 17.9-40 40-40 40 17.9 40 40z" stroke="#5bf" stroke-width="3" fill-opacity="0"/><g><use xlink:href="#j" transform="matrix(1,0,0,1,1042.426912492142,555.8799129606963) translate(4.456790123456795 27.888888888888886)"/><use xlink:href="#k" transform="matrix(1,0,0,1,1042.426912492142,555.8799129606963) translate(33 27.888888888888886)"/><use xlink:href="#l" transform="matrix(1,0,0,1,1042.426912492142,555.8799129606963) translate(2.9753086419753174 49.22222222222222)"/></g><defs><path fill="#5bf" d="M220-157c-53 9-28 100-34 157h-49v-107c1-27-5-49-29-50C55-147 81-57 75 0H25l-1-190h47c2 12-1 28 3 38 10-53 101-56 108 0 13-22 24-43 59-42 82 1 51 116 57 194h-49v-107c-1-25-5-48-29-50" id="m"/><path fill="#5bf" d="M133-34C117-15 103 5 69 4 32 3 11-16 11-54c-1-60 55-63 116-61 1-26-3-47-28-47-18 1-26 9-28 27l-52-2c7-38 36-58 82-57s74 22 75 68l1 82c-1 14 12 18 25 15v27c-30 8-71 5-69-32zm-48 3c29 0 43-24 42-57-32 0-66-3-65 30 0 17 8 27 23 27" id="n"/><path fill="#5bf" d="M25-224v-37h50v37H25zM25 0v-190h50V0H25" id="o"/><path fill="#5bf" d="M135-194c87-1 58 113 63 194h-50c-7-57 23-157-34-157-59 0-34 97-39 157H25l-1-190h47c2 12-1 28 3 38 12-26 28-41 61-42" id="p"/><g id="a"><use transform="matrix(0.04938271604938272,0,0,0.04938271604938272,0,0)" xlink:href="#m"/><use transform="matrix(0.04938271604938272,0,0,0.04938271604938272,15.80246913580247,0)" xlink:href="#n"/><use transform="matrix(0.04938271604938272,0,0,0.04938271604938272,25.679012345679016,0)" xlink:href="#o"/><use transform="matrix(0.04938271604938272,0,0,0.04938271604938272,30.617283950617285,0)" xlink:href="#p"/></g><path fill="#5bf" d="M135-194c52 0 70 43 70 98 0 56-19 99-73 100-30 1-46-15-58-35L72 0H24l1-261h50v104c11-23 29-37 60-37zM114-30c31 0 40-27 40-66 0-37-7-63-39-63s-41 28-41 65c0 36 8 64 40 64" id="q"/><path fill="#5bf" d="M135-150c-39-12-60 13-60 57V0H25l-1-190h47c2 13-1 29 3 40 6-28 27-53 61-41v41" id="r"/><path fill="#5bf" d="M190-63c-7 42-38 67-86 67-59 0-84-38-90-98-12-110 154-137 174-36l-49 2c-2-19-15-32-35-32-30 0-35 28-38 64-6 74 65 87 74 30" id="s"/><path fill="#5bf" d="M114-157C55-157 80-60 75 0H25v-261h50l-1 109c12-26 28-41 61-42 86-1 58 113 63 194h-50c-7-57 23-157-34-157" id="t"/><g id="b"><use transform="matrix(0.04938271604938272,0,0,0.04938271604938272,0,0)" xlink:href="#q"/><use transform="matrix(0.04938271604938272,0,0,0.04938271604938272,10.814814814814815,0)" xlink:href="#r"/><use transform="matrix(0.04938271604938272,0,0,0.04938271604938272,17.728395061728396,0)" xlink:href="#n"/><use transform="matrix(0.04938271604938272,0,0,0.04938271604938272,27.60493827160494,0)" xlink:href="#p"/><use transform="matrix(0.04938271604938272,0,0,0.04938271604938272,38.41975308641975,0)" xlink:href="#s"/><use transform="matrix(0.04938271604938272,0,0,0.04938271604938272,48.2962962962963,0)" xlink:href="#t"/></g><path fill="#5bf" d="M185-48c-13 30-37 53-82 52C43 2 14-33 14-96s30-98 90-98c62 0 83 45 84 108H66c0 31 8 55 39 56 18 0 30-7 34-22zm-45-69c5-46-57-63-70-21-2 6-4 13-4 21h74" id="u"/><path fill="#5bf" d="M195-6C206 82 75 100 31 46c-4-6-6-13-8-21l49-6c3 16 16 24 34 25 40 0 42-37 40-79-11 22-30 35-61 35-53 0-70-43-70-97 0-56 18-96 73-97 30 0 46 14 59 34l2-30h47zm-90-29c32 0 41-27 41-63 0-35-9-62-40-62-32 0-39 29-40 63 0 36 9 62 39 62" id="v"/><g id="c"><use transform="matrix(0.04938271604938272,0,0,0.04938271604938272,0,0)" xlink:href="#m"/><use transform="matrix(0.04938271604938272,0,0,0.04938271604938272,15.80246913580247,0)" xlink:href="#u"/><use transform="matrix(0.04938271604938272,0,0,0.04938271604938272,25.679012345679016,0)" xlink:href="#r"/><use transform="matrix(0.04938271604938272,0,0,0.04938271604938272,32.592592592592595,0)" xlink:href="#v"/><use transform="matrix(0.04938271604938272,0,0,0.04938271604938272,43.40740740740741,0)" xlink:href="#u"/></g><path fill="#5bf" d="M232-93c-1 65-40 97-104 97C67 4 28-28 28-90v-158h33c8 89-33 224 67 224 102 0 64-133 71-224h33v155" id="w"/><path fill="#5bf" d="M135-143c-3-34-86-38-87 0 15 53 115 12 119 90S17 21 10-45l28-5c4 36 97 45 98 0-10-56-113-15-118-90-4-57 82-63 122-42 12 7 21 19 24 35" id="x"/><path fill="#5bf" d="M100-194c63 0 86 42 84 106H49c0 40 14 67 53 68 26 1 43-12 49-29l28 8c-11 28-37 45-77 45C44 4 14-33 15-96c1-61 26-98 85-98zm52 81c6-60-76-77-97-28-3 7-6 17-6 28h103" id="y"/><g id="d"><use transform="matrix(0.049382716049382706,0,0,0.049382716049382706,0,0)" xlink:href="#w"/><use transform="matrix(0.049382716049382706,0,0,0.049382716049382706,12.790123456790122,0)" xlink:href="#x"/><use transform="matrix(0.049382716049382706,0,0,0.049382716049382706,21.67901234567901,0)" xlink:href="#y"/></g><path fill="#5bf" d="M101-234c-31-9-42 10-38 44h38v23H63V0H32v-167H5v-23h27c-7-52 17-82 69-68v24" id="z"/><path fill="#5bf" d="M100-194c62-1 85 37 85 99 1 63-27 99-86 99S16-35 15-95c0-66 28-99 85-99zM99-20c44 1 53-31 53-75 0-43-8-75-51-75s-53 32-53 75 10 74 51 75" id="A"/><path fill="#5bf" d="M87 75C49 33 22-17 22-94c0-76 28-126 65-167h31c-38 41-64 92-64 168S80 34 118 75H87" id="B"/><path fill="#5bf" d="M33-261c38 41 65 92 65 168S71 34 33 75H2C39 34 66-17 66-93S39-220 2-261h31" id="C"/><g id="e"><use transform="matrix(0.049382716049382706,0,0,0.049382716049382706,0,0)" xlink:href="#z"/><use transform="matrix(0.049382716049382706,0,0,0.049382716049382706,4.93827160493827,0)" xlink:href="#A"/><use transform="matrix(0.049382716049382706,0,0,0.049382716049382706,14.814814814814811,0)" xlink:href="#A"/><use transform="matrix(0.049382716049382706,0,0,0.049382716049382706,24.691358024691354,0)" xlink:href="#B"/><use transform="matrix(0.049382716049382706,0,0,0.049382716049382706,30.567901234567895,0)" xlink:href="#C"/></g><path fill="#5bf" d="M84 4C32 4 15-41 15-95c0-55 18-99 73-99 29 0 47 12 58 34l2-30h48l-1 265h-49V-32C136-9 114 4 84 4zm21-34c32 0 41-29 41-66 0-36-9-64-40-64-33 0-39 30-40 65 0 43 13 65 39 65" id="D"/><path fill="#5bf" d="M85 4C-2 5 27-109 22-190h50c7 57-23 150 33 157 60-5 35-97 40-157h50l1 190h-47c-2-12 1-28-3-38-12 25-28 42-61 42" id="E"/><g id="f"><use transform="matrix(0.04938271604938272,0,0,0.04938271604938272,0,0)" xlink:href="#r"/><use transform="matrix(0.04938271604938272,0,0,0.04938271604938272,6.913580246913581,0)" xlink:href="#u"/><use transform="matrix(0.04938271604938272,0,0,0.04938271604938272,16.790123456790127,0)" xlink:href="#D"/><use transform="matrix(0.04938271604938272,0,0,0.04938271604938272,27.604938271604947,0)" xlink:href="#E"/><use transform="matrix(0.04938271604938272,0,0,0.04938271604938272,38.41975308641976,0)" xlink:href="#o"/><use transform="matrix(0.04938271604938272,0,0,0.04938271604938272,43.35802469135803,0)" xlink:href="#r"/><use transform="matrix(0.04938271604938272,0,0,0.04938271604938272,50.271604938271615,0)" xlink:href="#u"/></g><path fill="#5bf" d="M137-138c1-29-70-34-71-4 15 46 118 7 119 86 1 83-164 76-172 9l43-7c4 19 20 25 44 25 33 8 57-30 24-41C81-84 22-81 20-136c-2-80 154-74 161-7" id="F"/><g id="g"><use transform="matrix(0.04938271604938272,0,0,0.04938271604938272,0,0)" xlink:href="#r"/><use transform="matrix(0.04938271604938272,0,0,0.04938271604938272,6.913580246913581,0)" xlink:href="#u"/><use transform="matrix(0.04938271604938272,0,0,0.04938271604938272,16.790123456790127,0)" xlink:href="#q"/><use transform="matrix(0.04938271604938272,0,0,0.04938271604938272,27.604938271604947,0)" xlink:href="#n"/><use transform="matrix(0.04938271604938272,0,0,0.04938271604938272,37.48148148148149,0)" xlink:href="#F"/><use transform="matrix(0.04938271604938272,0,0,0.04938271604938272,47.35802469135803,0)" xlink:href="#u"/></g><path fill="#5bf" d="M233-177c-1 41-23 64-60 70L243 0h-38l-65-103H63V0H30v-248c88 3 205-21 203 71zM63-129c60-2 137 13 137-47 0-61-80-42-137-45v92" id="G"/><path fill="#5bf" d="M117-194c89-4 53 116 60 194h-32v-121c0-31-8-49-39-48C34-167 62-67 57 0H25l-1-190h30c1 10-1 24 2 32 11-22 29-35 61-36" id="H"/><path fill="#5bf" d="M141-36C126-15 110 5 73 4 37 3 15-17 15-53c-1-64 63-63 125-63 3-35-9-54-41-54-24 1-41 7-42 31l-33-3c5-37 33-52 76-52 45 0 72 20 72 64v82c-1 20 7 32 28 27v20c-31 9-61-2-59-35zM48-53c0 20 12 33 32 33 41-3 63-29 60-74-43 2-92-5-92 41" id="I"/><path fill="#5bf" d="M210-169c-67 3-38 105-44 169h-31v-121c0-29-5-50-35-48C34-165 62-65 56 0H25l-1-190h30c1 10-1 24 2 32 10-44 99-50 107 0 11-21 27-35 58-36 85-2 47 119 55 194h-31v-121c0-29-5-49-35-48" id="J"/><g id="h"><use transform="matrix(0.049382716049382706,0,0,0.049382716049382706,0,0)" xlink:href="#G"/><use transform="matrix(0.049382716049382706,0,0,0.049382716049382706,12.790123456790122,0)" xlink:href="#y"/><use transform="matrix(0.049382716049382706,0,0,0.049382716049382706,22.666666666666664,0)" xlink:href="#H"/><use transform="matrix(0.049382716049382706,0,0,0.049382716049382706,32.5432098765432,0)" xlink:href="#I"/><use transform="matrix(0.049382716049382706,0,0,0.049382716049382706,42.419753086419746,0)" xlink:href="#J"/><use transform="matrix(0.049382716049382706,0,0,0.049382716049382706,57.185185185185176,0)" xlink:href="#y"/></g><g id="i"><use transform="matrix(0.049382716049382706,0,0,0.049382716049382706,0,0)" xlink:href="#z"/><use transform="matrix(0.049382716049382706,0,0,0.049382716049382706,4.93827160493827,0)" xlink:href="#A"/><use transform="matrix(0.049382716049382706,0,0,0.049382716049382706,14.814814814814811,0)" xlink:href="#A"/><use transform="matrix(0.049382716049382706,0,0,0.049382716049382706,24.691358024691354,0)" xlink:href="#B"/><use transform="matrix(0.049382716049382706,0,0,0.049382716049382706,30.567901234567895,0)" xlink:href="#C"/></g><path fill="#5bf" d="M63-220v92h138v28H63V0H30v-248h175v28H63" id="K"/><path fill="#5bf" d="M24-231v-30h32v30H24zM24 0v-190h32V0H24" id="L"/><path fill="#5bf" d="M141 0L90-78 38 0H4l68-98-65-92h35l48 74 47-74h35l-64 92 68 98h-35" id="M"/><g id="j"><use transform="matrix(0.049382716049382706,0,0,0.049382716049382706,0,0)" xlink:href="#K"/><use transform="matrix(0.049382716049382706,0,0,0.049382716049382706,10.814814814814813,0)" xlink:href="#L"/><use transform="matrix(0.049382716049382706,0,0,0.049382716049382706,14.716049382716047,0)" xlink:href="#M"/></g><path fill="#5bf" d="M206 0h-36l-40-164L89 0H53L-1-190h32L70-26l43-164h34l41 164 42-164h31" id="N"/><g id="k"><use transform="matrix(0.049382716049382706,0,0,0.049382716049382706,0,0)" xlink:href="#H"/><use transform="matrix(0.049382716049382706,0,0,0.049382716049382706,9.87654320987654,0)" xlink:href="#y"/><use transform="matrix(0.049382716049382706,0,0,0.049382716049382706,19.75308641975308,0)" xlink:href="#N"/></g><path fill="#5bf" d="M96-169c-40 0-48 33-48 73s9 75 48 75c24 0 41-14 43-38l32 2c-6 37-31 61-74 61-59 0-76-41-82-99-10-93 101-131 147-64 4 7 5 14 7 22l-32 3c-4-21-16-35-41-35" id="O"/><path fill="#5bf" d="M24 0v-261h32V0H24" id="P"/><path fill="#5bf" d="M177-190C167-65 218 103 67 71c-23-6-38-20-44-43l32-5c15 47 100 32 89-28v-30C133-14 115 1 83 1 29 1 15-40 15-95c0-56 16-97 71-98 29-1 48 16 59 35 1-10 0-23 2-32h30zM94-22c36 0 50-32 50-73 0-42-14-75-50-75-39 0-46 34-46 75s6 73 46 73" id="Q"/><path fill="#5bf" d="M106-169C34-169 62-67 57 0H25v-261h32l-1 103c12-21 28-36 61-36 89 0 53 116 60 194h-32v-121c2-32-8-49-39-48" id="R"/><path fill="#5bf" d="M59-47c-2 24 18 29 38 22v24C64 9 27 4 27-40v-127H5v-23h24l9-43h21v43h35v23H59v120" id="S"/><g id="l"><use transform="matrix(0.049382716049382706,0,0,0.049382716049382706,0,0)" xlink:href="#O"/><use transform="matrix(0.049382716049382706,0,0,0.049382716049382706,8.888888888888888,0)" xlink:href="#I"/><use transform="matrix(0.049382716049382706,0,0,0.049382716049382706,18.76543209876543,0)" xlink:href="#P"/><use transform="matrix(0.049382716049382706,0,0,0.049382716049382706,22.666666666666664,0)" xlink:href="#P"/><use transform="matrix(0.049382716049382706,0,0,0.049382716049382706,26.567901234567895,0)" xlink:href="#x"/><use transform="matrix(0.049382716049382706,0,0,0.049382716049382706,35.456790123456784,0)" xlink:href="#L"/><use transform="matrix(0.049382716049382706,0,0,0.049382716049382706,39.35802469135802,0)" xlink:href="#Q"/><use transform="matrix(0.049382716049382706,0,0,0.049382716049382706,49.234567901234556,0)" xlink:href="#R"/><use transform="matrix(0.049382716049382706,0,0,0.049382716049382706,59.1111111111111,0)" xlink:href="#S"/></g></defs></g></svg>