<svg xmlns="http://www.w3.org/2000/svg" xmlns:xlink="http://www.w3.org/1999/xlink" xmlns:lucid="lucid" width="1720" height="600"><g transform="translate(-20 -380)" lucid:page-tab-id="0_0"><path d="M777.82 604c0 3.3-2.68 6-6 6H596c-3.3 0-6-2.7-6-6V400c31.37 35.07 50.9 35.07 62.73 35.07 18.8 0 43.77-35.07 62.55-35.07 11.64 0 31.37 0 62.54 35.07z" stroke="#5e5e5e" stroke-width="3" fill="#f5b5c8"/><use xlink:href="#a" transform="matrix(1,-2.4492935982947064e-16,2.4492935982947064e-16,1,594.9999999999999,439.99999999999994) translate(15.654730902777771 17.7734375)"/><use xlink:href="#b" transform="matrix(1,-2.4492935982947064e-16,2.4492935982947064e-16,1,594.9999999999999,439.99999999999994) translate(122.33875868055557 17.7734375)"/><use xlink:href="#c" transform="matrix(1,-2.4492935982947064e-16,2.4492935982947064e-16,1,594.9999999999999,439.99999999999994) translate(42.325737847222214 39.99565972222222)"/><use xlink:href="#d" transform="matrix(1,-2.4492935982947064e-16,2.4492935982947064e-16,1,594.9999999999999,439.99999999999994) translate(15.654730902777757 62.21788194444444)"/><path d="M593.33 656c0-3.3 2.7-6 6-6H774c3.3 0 6 2.7 6 6v204c-31.17-35.07-50.6-35.07-62.35-35.07-18.66 0-43.5 35.07-62.16 35.07-11.58 0-31.18 0-62.17-35.07z" stroke="#5e5e5e" stroke-width="3" fill="#f5b5c8"/><use xlink:href="#a" transform="matrix(1,0,0,1,598.3333333333335,655) translate(15.154730902777771 120.0734375)"/><use xlink:href="#e" transform="matrix(1,0,0,1,598.3333333333335,655) translate(121.83875868055557 120.0734375)"/><use xlink:href="#f" transform="matrix(1,0,0,1,598.3333333333335,655) translate(41.825737847222214 142.2956597222222)"/><use xlink:href="#d" transform="matrix(1,0,0,1,598.3333333333335,655) translate(15.154730902777757 164.51788194444444)"/><path d="M290 656c0-3.3 2.7-6 6-6h263c3.3 0 6 2.7 6 6v204c-45.92-35.07-74.52-35.07-91.85-35.07-27.5 0-64.07 35.07-91.57 35.07-17.06 0-45.93 0-91.58-35.07z" stroke="#5e5e5e" stroke-width="3" fill="#f5b5c8"/><use xlink:href="#a" transform="matrix(1,0,0,1,295,655) translate(59.15473090277777 120.0734375)"/><use xlink:href="#g" transform="matrix(1,0,0,1,295,655) translate(165.83875868055557 120.0734375)"/><use xlink:href="#h" transform="matrix(1,0,0,1,295,655) translate(85.82573784722221 142.2956597222222)"/><use xlink:href="#i" transform="matrix(1,0,0,1,295,655) translate(59.15473090277776 164.51788194444444)"/><path d="M1240 466c0-3.3 2.7-6 6-6h468c3.3 0 6 2.7 6 6v488c0 3.3-2.7 6-6 6h-468c-3.3 0-6-2.7-6-6z" stroke="#5e5e5e" stroke-width="3" fill="#83bbe5"/><use xlink:href="#j" transform="matrix(1,0,0,1,1245,465) translate(94.97721354166663 17.7734375)"/><use xlink:href="#k" transform="matrix(1,0,0,1,1245,465) translate(255.00325520833334 17.7734375)"/><path d="M800 466c0-3.3 2.7-6 6-6h381.33c3.32 0 6 2.7 6 6v328c0 3.3-2.68 6-6 6H806c-3.3 0-6-2.7-6-6z" stroke="#5e5e5e" stroke-width="3" fill="#83bbe5"/><use xlink:href="#l" transform="matrix(1,0,0,1,805.0000000000002,465) translate(158.66124131944446 17.7734375)"/><path d="M400 516c0-3.3 2.7-6 6-6h148c3.3 0 6 2.7 6 6v88c0 3.3-2.7 6-6 6H406c-3.3 0-6-2.7-6-6z" stroke="#5e5e5e" stroke-width="3" fill="#83bbe5"/><use xlink:href="#m" transform="matrix(1,0,0,1,412,522) translate(14.6579861111111 34.3984375)"/><use xlink:href="#n" transform="matrix(1,0,0,1,412,522) translate(108.00651041666667 34.3984375)"/><use xlink:href="#o" transform="matrix(1,0,0,1,412,522) translate(14.6579861111111 56.62065972222222)"/><path d="M340 536c0-3.3 2.7-6 6-6h68c3.3 0 6 2.7 6 6v48c0 3.3-2.7 6-6 6h-68c-3.3 0-6-2.7-6-6z" stroke="#5e5e5e" stroke-width="3" fill="#ff8f80"/><use xlink:href="#p" transform="matrix(1,0,0,1,352,542) translate(-5.338758680555557 24.66232638888889)"/><path d="M100 656c0-3.3 2.7-6 6-6h148c3.3 0 6 2.7 6 6v88c0 3.3-2.7 6-6 6H106c-3.3 0-6-2.7-6-6z" stroke="#5e5e5e" stroke-width="3" fill="#83bbe5"/><use xlink:href="#m" transform="matrix(1,0,0,1,112,662) translate(14.6579861111111 34.3984375)"/><use xlink:href="#q" transform="matrix(1,0,0,1,112,662) translate(108.00651041666667 34.3984375)"/><use xlink:href="#o" transform="matrix(1,0,0,1,112,662) translate(14.6579861111111 56.62065972222222)"/><path d="M40 676c0-3.3 2.7-6 6-6h68c3.3 0 6 2.7 6 6v48c0 3.3-2.7 6-6 6H46c-3.3 0-6-2.7-6-6z" stroke="#5e5e5e" stroke-width="3" fill="#ff8f80"/><use xlink:href="#p" transform="matrix(1,0,0,1,52,682) translate(-5.338758680555557 24.66232638888889)"/><path d="M846.67 546c0-3.3 2.68-6 6-6h252c3.3 0 6-2.7 6-6v-8c0-3.3 1.8-4 4-1.54l27.98 31.08c2.22 2.46 2.22 6.46 0 8.92l-27.97 31.08c-2.22 2.46-4 1.77-4-1.54v-8c0-3.3-2.7-6-6-6h-252c-3.33 0-6-2.7-6-6z" stroke="#5e5e5e" stroke-width="3" fill="#ffdf71"/><use xlink:href="#r" transform="matrix(1,0,0,1,851.666666666667,525) translate(28.64822048611107 41.8359375)"/><path d="M849.34 686c0-3.3 2.68-6 6-6h249.33c3.3 0 6-2.7 6-6v-8c0-3.3 1.8-4 4-1.54l27.98 31.08c2.22 2.46 2.22 6.46 0 8.92l-27.97 31.08c-2.22 2.46-4 1.77-4-1.54v-8c0-3.3-2.7-6-6-6H855.33c-3.32 0-6-2.7-6-6z" stroke="#5e5e5e" stroke-width="3" fill="#ffdf71"/><use xlink:href="#s" transform="matrix(1,0,0,1,854.3366666666669,665) translate(27.64822048611107 41.8359375)"/><path d="M676.94 560h6.26" stroke="#ffdf71" stroke-width="6" fill="none"/><path d="M677.02 563h-3.96l1-2.4-.52-2.97-.54-.63h4.02zM686.15 559.48l.33 3.52h-3.36v-6h3.43z" fill="#ffdf71"/><path d="M564.5 560h29.22" stroke="#ffdf71" stroke-width="6" fill="none"/><path d="M564.58 563h-3.08v-6h3.08zM596.62 559.4l.5 2.97.54.63h-4v-6h3.95z" fill="#ffdf71"/><path d="M768.8 560h49.4" stroke="#ffdf71" stroke-width="6" fill="none"/><path d="M768.88 563h-3.43l.4-2.48-.33-3.52h3.36z" fill="#ffdf71"/><path d="M835.46 560l-14.27 4.64v-9.28z" stroke="#ffdf71" stroke-width="6" fill="#ffdf71"/><path d="M377.6 700h8.3" stroke="#ffdf71" stroke-width="6" fill="none"/><path d="M377.7 703h-3.97l1-2.4-.53-2.97-.53-.63h4.02zM388.78 699.4l.52 2.97.53.63h-4.02v-6h3.97z" fill="#ffdf71"/><path d="M264.5 700h29.9" stroke="#ffdf71" stroke-width="6" fill="none"/><path d="M264.58 703h-3.08v-6h3.08zM297.28 699.4l.52 2.97.53.63h-4.02v-6h3.97z" fill="#ffdf71"/><path d="M776.8 700h44.06" stroke="#ffdf71" stroke-width="6" fill="none"/><path d="M776.88 703h-3.43l.4-2.48-.33-3.52h3.36z" fill="#ffdf71"/><path d="M838.13 700l-14.27 4.64v-9.28z" stroke="#ffdf71" stroke-width="6" fill="#ffdf71"/><path d="M682.6 700h8.6" stroke="#ffdf71" stroke-width="6" fill="none"/><path d="M682.7 703h-3.97l1-2.4-.53-2.97-.53-.63h4.02zM694.15 699.48l.33 3.52h-3.36v-6h3.43z" fill="#ffdf71"/><path d="M558.8 700h40.6" stroke="#ffdf71" stroke-width="6" fill="none"/><path d="M558.88 703h-3.43l.4-2.48-.33-3.52h3.36zM602.28 699.4l.52 2.97.53.63h-4.02v-6h3.97z" fill="#ffdf71"/><path d="M469.1 700h4.1" stroke="#ffdf71" stroke-width="6" fill="none"/><path d="M469.2 703h-3.97l1-2.4-.53-2.97-.53-.63h4.02zM476.15 699.48l.33 3.52h-3.36v-6h3.43z" fill="#ffdf71"/><path d="M1364.67 743.6c0 32.25-16.27 58.4-36.34 58.4-20.06 0-36.33-26.15-36.33-58.4V568.4c0-32.25 16.27-58.4 36.33-58.4 20.07 0 36.34 26.15 36.34 58.4z" stroke="#5e5e5e" stroke-width="3" fill="#a3d977"/><path d="M1280 817.33c0-3.3 2.7-6 6-6h148c3.3 0 6 2.7 6 6v60.23c0 3.3-2.7 6-6 6h-148c-3.3 0-6-2.7-6-6z" stroke="#000" stroke-opacity="0" stroke-width="3" fill="#fff" fill-opacity="0"/><use xlink:href="#t" transform="matrix(1,0,0,1,1285,816.3333333333334) translate(14.323459201388907 12.830295138888896)"/><use xlink:href="#u" transform="matrix(1,0,0,1,1285,816.3333333333334) translate(107.67198350694443 12.830295138888896)"/><use xlink:href="#v" transform="matrix(1,0,0,1,1285,816.3333333333334) translate(37.66059027777779 28.385850694444446)"/><use xlink:href="#w" transform="matrix(1,0,0,1,1285,816.3333333333334) translate(37.66059027777779 43.94140625)"/><use xlink:href="#x" transform="matrix(1,0,0,1,1285,816.3333333333334) translate(65.66514756944446 43.94140625)"/><use xlink:href="#y" transform="matrix(1,0,0,1,1285,816.3333333333334) translate(-23.01595052083327 59.49696180555554)"/><path d="M1148.76 560h115.14" stroke="#ffdf71" stroke-width="6" fill="none"/><path d="M1148.84 563h-3.67l.42-.98.2-2.63-.54-2.4h3.58z" fill="#ffdf71"/><path d="M1281.17 560l-14.27 4.64v-9.27z" stroke="#ffdf71" stroke-width="6" fill="#ffdf71"/><path d="M1148.76 700h114.77" stroke="#ffdf71" stroke-width="6" fill="none"/><path d="M1148.84 703h-3.67l.42-.98.2-2.63-.54-2.4h3.58z" fill="#ffdf71"/><path d="M1280.8 700l-14.27 4.64v-9.27z" stroke="#ffdf71" stroke-width="6" fill="#ffdf71"/><path d="M699.18 535.3c1.56-2.93 5.5-5.3 8.82-5.3h36c3.3 0 7.26 2.37 8.82 5.3l10.36 19.4c1.56 2.93 1.56 7.67 0 10.6l-10.36 19.4c-1.56 2.93-5.5 5.3-8.82 5.3h-36c-3.3 0-7.26-2.37-8.82-5.3l-10.36-19.4c-1.56-2.93-1.56-7.67 0-10.6z" stroke="#5e5e5e" stroke-width="3" fill="#b391b5"/><use xlink:href="#z" transform="matrix(1,0,0,1,691,535) translate(2.9947916666666785 29.414062499999996)"/><path d="M630.53 533.6c2.65-2 6.95-2 9.6 0l30.4 22.8c2.65 2 2.65 5.2 0 7.2l-30.4 22.8c-2.65 2-6.95 2-9.6 0l-30.4-22.8c-2.65-2-2.65-5.2 0-7.2z" stroke="#5e5e5e" stroke-width="3" fill="#b391b5"/><use xlink:href="#A" transform="matrix(1,0,0,1,600.3333333333335,535) translate(11.001093750000011 29.789062499999996)"/><path d="M707.18 675.3c1.56-2.93 5.5-5.3 8.82-5.3h36c3.3 0 7.26 2.37 8.82 5.3l10.36 19.4c1.56 2.93 1.56 7.67 0 10.6l-10.36 19.4c-1.56 2.93-5.5 5.3-8.82 5.3h-36c-3.3 0-7.26-2.37-8.82-5.3l-10.36-19.4c-1.56-2.93-1.56-7.67 0-10.6z" stroke="#5e5e5e" stroke-width="3" fill="#b391b5"/><use xlink:href="#z" transform="matrix(1,0,0,1,699,675) translate(2.9947916666666785 29.414062499999996)"/><path d="M636.2 673.6c2.65-2 6.95-2 9.6 0l30.4 22.8c2.65 2 2.65 5.2 0 7.2l-30.4 22.8c-2.65 2-6.95 2-9.6 0l-30.4-22.8c-2.65-2-2.65-5.2 0-7.2z" stroke="#5e5e5e" stroke-width="3" fill="#b391b5"/><use xlink:href="#A" transform="matrix(1,0,0,1,606,675) translate(11.001093750000011 29.789062499999996)"/><path d="M489.18 675.3c1.56-2.93 5.5-5.3 8.82-5.3h36c3.3 0 7.26 2.37 8.82 5.3l10.36 19.4c1.56 2.93 1.56 7.67 0 10.6l-10.36 19.4c-1.56 2.93-5.5 5.3-8.82 5.3h-36c-3.3 0-7.26-2.37-8.82-5.3l-10.36-19.4c-1.56-2.93-1.56-7.67 0-10.6z" stroke="#5e5e5e" stroke-width="3" fill="#b391b5"/><use xlink:href="#z" transform="matrix(1,0,0,1,481,675) translate(2.9947916666666785 29.414062499999996)"/><path d="M422.7 673.6c2.65-2 6.95-2 9.6 0l30.4 22.8c2.65 2 2.65 5.2 0 7.2l-30.4 22.8c-2.65 2-6.95 2-9.6 0l-30.4-22.8c-2.65-2-2.65-5.2 0-7.2z" stroke="#5e5e5e" stroke-width="3" fill="#b391b5"/><use xlink:href="#A" transform="matrix(1,0,0,1,392.5,675) translate(11.001093750000011 29.789062499999996)"/><path d="M331.2 673.6c2.65-2 6.95-2 9.6 0l30.4 22.8c2.65 2 2.65 5.2 0 7.2l-30.4 22.8c-2.65 2-6.95 2-9.6 0l-30.4-22.8c-2.65-2-2.65-5.2 0-7.2z" stroke="#5e5e5e" stroke-width="3" fill="#b391b5"/><use xlink:href="#A" transform="matrix(1,0,0,1,301,675) translate(11.001093750000011 29.789062499999996)"/><path d="M1540 493.33c0-3.3 2.7-6 6-6h148c3.3 0 6 2.7 6 6V612c0 3.3-2.7 6-6 6h-148c-3.3 0-6-2.7-6-6z" stroke="#5e5e5e" stroke-width="3" fill="#5abaa7"/><use xlink:href="#B" transform="matrix(1,0,0,1,1552,499.3333333333334) translate(34.66124131944444 17.7734375)"/><use xlink:href="#C" transform="matrix(1,0,0,1,1552,499.3333333333334) translate(21.325737847222214 39.99565972222222)"/><use xlink:href="#D" transform="matrix(1,0,0,1,1552,499.3333333333334) translate(14.6579861111111 62.21788194444444)"/><use xlink:href="#E" transform="matrix(1,0,0,1,1552,499.3333333333334) translate(7.990234374999986 84.44010416666666)"/><path d="M1540 651.33c0-3.3 2.7-6 6-6h148c3.3 0 6 2.7 6 6V770c0 3.3-2.7 6-6 6h-148c-3.3 0-6-2.7-6-6z" stroke="#5e5e5e" stroke-width="3" fill="#5abaa7"/><g><use xlink:href="#B" transform="matrix(1,0,0,1,1552,657.3333333333334) translate(34.66124131944444 17.7734375)"/><use xlink:href="#C" transform="matrix(1,0,0,1,1552,657.3333333333334) translate(21.325737847222214 39.99565972222222)"/><use xlink:href="#D" transform="matrix(1,0,0,1,1552,657.3333333333334) translate(14.6579861111111 62.21788194444444)"/><use xlink:href="#E" transform="matrix(1,0,0,1,1552,657.3333333333334) translate(7.990234374999986 84.44010416666666)"/></g><path d="M1367.13 565.72H1520" stroke="#5e5e5e" stroke-width="2" fill="none"/><path d="M1367.15 566.72h-1l-.03-1.22-.05-.78h1.08z" fill="#5e5e5e"/><path d="M1535.26 565.72l-14.26 4.63v-9.27z" stroke="#5e5e5e" stroke-width="2" fill="#5e5e5e"/><g><use xlink:href="#F" transform="matrix(1,0,0,1,1372.9673170468063,530.6077459140633) translate(0.0049999999999954525 12.441406250000002)"/><use xlink:href="#G" transform="matrix(1,0,0,1,1372.9673170468063,530.6077459140633) translate(28.00955729166666 27.996961805555557)"/><use xlink:href="#H" transform="matrix(1,0,0,1,1372.9673170468063,530.6077459140633) translate(121.35808159722222 27.996961805555557)"/></g><path d="M1363.42 769.45H1504c3.3 0 6 2.7 6 6v95.22c0 3.3 2.7 6 6 6h4" stroke="#5e5e5e" stroke-width="2" fill="none"/><path d="M1363.44 770.45h-1.33l.63-2h.7z" fill="#5e5e5e"/><path d="M1535.26 876.67L1521 881.3v-9.27z" stroke="#5e5e5e" stroke-width="2" fill="#5e5e5e"/><g><use xlink:href="#I" transform="matrix(1,0,0,1,1375.562396024965,734.3430709815659) translate(0.0049999999999954525 12.441406250000002)"/><use xlink:href="#G" transform="matrix(1,0,0,1,1375.562396024965,734.3430709815659) translate(28.00955729166666 27.996961805555557)"/><use xlink:href="#J" transform="matrix(1,0,0,1,1375.562396024965,734.3430709815659) translate(121.35808159722222 27.996961805555557)"/></g><path d="M1540 817.33c0-3.3 2.7-6 6-6h148c3.3 0 6 2.7 6 6V936c0 3.3-2.7 6-6 6h-148c-3.3 0-6-2.7-6-6z" stroke="#5e5e5e" stroke-width="3" fill="#5abaa7"/><g><use xlink:href="#B" transform="matrix(1,0,0,1,1552,823.3333333333334) translate(34.66124131944444 17.7734375)"/><use xlink:href="#C" transform="matrix(1,0,0,1,1552,823.3333333333334) translate(21.325737847222214 39.99565972222222)"/><use xlink:href="#D" transform="matrix(1,0,0,1,1552,823.3333333333334) translate(14.6579861111111 62.21788194444444)"/><use xlink:href="#E" transform="matrix(1,0,0,1,1552,823.3333333333334) translate(7.990234374999986 84.44010416666666)"/></g><path d="M1367.17 696.8H1520" stroke="#5e5e5e" stroke-width="2" fill="none"/><path d="M1367.2 697.8h-1.03v-2h1.02z" fill="#5e5e5e"/><path d="M1535.26 696.8l-14.26 4.64v-9.27z" stroke="#5e5e5e" stroke-width="2" fill="#5e5e5e"/><g><use xlink:href="#I" transform="matrix(1,0,0,1,1372.9870876736113,661.6910174870011) translate(0.0049999999999954525 12.441406250000002)"/><use xlink:href="#G" transform="matrix(1,0,0,1,1372.9870876736113,661.6910174870011) translate(28.00955729166666 27.996961805555557)"/><use xlink:href="#H" transform="matrix(1,0,0,1,1372.9870876736113,661.6910174870011) translate(121.35808159722222 27.996961805555557)"/></g><path d="M1620 596c0-3.3 2.7-6 6-6h68c3.3 0 6 2.7 6 6v28c0 3.3-2.7 6-6 6h-68c-3.3 0-6-2.7-6-6z" stroke="#5e5e5e" stroke-width="3" fill="#ff8f80"/><g><use xlink:href="#K" transform="matrix(1,0,0,1,1632,602) translate(-5.338758680555557 17.7734375)"/></g><path d="M1620 761c0-3.3 2.7-6 6-6h68c3.3 0 6 2.7 6 6v28c0 3.3-2.7 6-6 6h-68c-3.3 0-6-2.7-6-6z" stroke="#5e5e5e" stroke-width="3" fill="#ff8f80"/><g><use xlink:href="#K" transform="matrix(1,0,0,1,1632,767) translate(-5.338758680555557 17.7734375)"/></g><path d="M1620 919c0-3.3 2.7-6 6-6h68c3.3 0 6 2.7 6 6v28c0 3.3-2.7 6-6 6h-68c-3.3 0-6-2.7-6-6z" stroke="#5e5e5e" stroke-width="3" fill="#ff8f80"/><g><use xlink:href="#K" transform="matrix(1,0,0,1,1632,925) translate(-5.338758680555557 17.7734375)"/></g><defs><path fill="#333" d="M614-1226c-167 1-283 53-283 213 0 183 186 193 334 234 230 63 463 120 463 409 0 286-219 387-518 390C309 23 131-98 79-338l185-37c34 165 149 248 351 246 184-2 324-58 324-238 0-203-207-221-372-266-210-57-422-111-422-377 0-267 201-356 470-360 279-5 430 101 480 324l-188 33c-28-141-121-215-293-213" id="L"/><path fill="#333" d="M617-1102c355 0 481 238 477 599H322c5 222 84 388 301 388 144 0 244-59 284-166l158 45C1002-72 854 20 623 20c-342 0-490-220-490-568 0-346 151-554 484-554zm291 461c-18-192-90-328-289-328-194 0-287 128-295 328h584" id="M"/><path fill="#333" d="M873-819c-18-114-119-146-250-146-163 0-245 50-245 151 0 151 170 148 294 185 182 54 388 94 388 320 0 240-189 325-439 329-245 4-410-69-454-268l159-31c24 133 136 168 295 165 144-2 270-31 270-171 0-164-195-160-331-202-167-52-350-87-350-299 0-218 173-315 413-313 220 2 373 77 412 260" id="N"/><path fill="#333" d="M745-142h380V0H143v-142h422v-798H246v-142h499v940zM545-1292v-192h200v192H545" id="O"/><path fill="#333" d="M615-1102c343 0 484 203 482 560-1 347-147 562-488 562-336 0-475-219-479-562-4-349 156-560 485-560zm-8 989c240 0 301-180 301-429 0-245-55-427-290-427-236 0-299 181-299 427 0 243 61 429 288 429" id="P"/><path fill="#333" d="M706-1102c241 0 344 136 343 381V0H868v-695c1-168-57-273-220-268-190 6-283 138-283 336V0H185c-3-360 6-732-6-1082h170c4 54 7 126 8 185h3c63-121 164-204 346-205" id="Q"/><g id="a"><use transform="matrix(0.010850694444444444,0,0,0.010850694444444444,0,0)" xlink:href="#L"/><use transform="matrix(0.010850694444444444,0,0,0.010850694444444444,13.335503472222221,0)" xlink:href="#M"/><use transform="matrix(0.010850694444444444,0,0,0.010850694444444444,26.671006944444443,0)" xlink:href="#N"/><use transform="matrix(0.010850694444444444,0,0,0.010850694444444444,40.006510416666664,0)" xlink:href="#N"/><use transform="matrix(0.010850694444444444,0,0,0.010850694444444444,53.342013888888886,0)" xlink:href="#O"/><use transform="matrix(0.010850694444444444,0,0,0.010850694444444444,66.67751736111111,0)" xlink:href="#P"/><use transform="matrix(0.010850694444444444,0,0,0.010850694444444444,80.01302083333334,0)" xlink:href="#Q"/></g><path fill="#333" d="M865-914c-3-187-2-380-2-570h180v1261c0 76 1 155 6 223H877c-8-49-9-116-10-174h-5C801-44 708 26 530 26c-135 0-234-46-297-139s-95-232-95-419c0-377 131-566 392-566 176 0 271 63 335 184zm-286-51c-222 0-255 197-255 427 0 229 31 425 253 425 237 0 286-195 286-441 0-238-52-411-284-411" id="R"/><path fill="#333" d="M839-1335c-182-6-269 67-259 253h491v142H580V0H400v-940H138v-142h262c-15-293 132-408 418-402 94 2 200 7 281 21v145c-75-10-177-14-260-17" id="S"/><g id="b"><use transform="matrix(0.010850694444444444,0,0,0.010850694444444444,0,0)" xlink:href="#R"/><use transform="matrix(0.010850694444444444,0,0,0.010850694444444444,13.335503472222221,0)" xlink:href="#M"/><use transform="matrix(0.010850694444444444,0,0,0.010850694444444444,26.671006944444443,0)" xlink:href="#S"/></g><path fill="#333" d="M914 0L548-499l-132 98V0H236v-1484h180v927l475-525h211L663-617 1125 0H914" id="T"/><path fill="#333" d="M168 279c222 39 310-114 368-290L66-1082h192c120 299 249 590 362 896 115-301 235-597 351-896h190L705 0c-65 164-130 320-275 396-67 36-177 35-262 18V279" id="U"/><path fill="#333" d="M116-856v-148h995v148H116zm0 512v-148h995v148H116" id="V"/><g id="c"><use transform="matrix(0.010850694444444444,0,0,0.010850694444444444,0,0)" xlink:href="#T"/><use transform="matrix(0.010850694444444444,0,0,0.010850694444444444,13.335503472222221,0)" xlink:href="#M"/><use transform="matrix(0.010850694444444444,0,0,0.010850694444444444,26.671006944444443,0)" xlink:href="#U"/><use transform="matrix(0.010850694444444444,0,0,0.010850694444444444,40.006510416666664,0)" xlink:href="#V"/><use transform="matrix(0.010850694444444444,0,0,0.010850694444444444,53.342013888888886,0)" xlink:href="#R"/><use transform="matrix(0.010850694444444444,0,0,0.010850694444444444,66.67751736111111,0)" xlink:href="#M"/><use transform="matrix(0.010850694444444444,0,0,0.010850694444444444,80.01302083333334,0)" xlink:href="#S"/></g><path fill="#333" d="M698-1104c312 3 392 244 392 558 0 315-82 566-392 566-169 0-277-65-331-184h-5c8 188 2 394 4 589H185V-858c0-76-1-156-6-224h175c6 52 9 120 10 178h4c58-122 150-202 330-200zm-49 991c225 0 255-203 255-433 0-225-32-419-253-419-236 0-285 192-285 441 0 237 53 411 283 411" id="W"/><path fill="#333" d="M1000-272c3 95 12 159 101 161 21 0 41-3 59-7V-6c-44 10-86 16-139 16-141 2-191-84-197-217h-6C748-76 648 20 446 20c-207 0-318-120-318-322 0-266 194-348 454-354l236-4c12-191-40-305-222-305-140 0-220 47-232 172l-188-17c33-204 181-292 423-292 255 0 401 118 401 364v466zm-683-27c0 109 63 184 175 182 166-3 259-96 306-217 24-65 20-120 20-200-232 7-501-28-501 235" id="X"/><path fill="#333" d="M839-1102c70 0 148 7 206 17v167c-112-18-268-36-363 15-129 69-208 203-208 395V0H294c-10-367 32-789-52-1082h171c21 75 41 161 48 250h5c67-152 152-270 373-270" id="Y"/><path fill="#333" d="M682 16c-209 0-323-80-324-285v-671H190v-142h170l58-282h120v282h432v142H538v652c2 114 60 155 182 155 106 0 209-16 297-34v137C921-4 806 16 682 16" id="Z"/><path fill="#333" d="M1065-1013c47 164 49 500-1 665C999-130 875 20 611 20c-377 0-484-300-487-695-2-245 41-425 141-551 77-98 191-144 352-144 261 0 386 140 448 357zM741-155c199-92 203-504 159-785-26-168-96-284-283-284-281 0-308 256-311 549-2 181 18 324 80 428 46 77 115 118 227 120 47 0 90-10 128-28zM496-555v-249h235v249H496" id="aa"/><g id="d"><use transform="matrix(0.010850694444444444,0,0,0.010850694444444444,0,0)" xlink:href="#W"/><use transform="matrix(0.010850694444444444,0,0,0.010850694444444444,13.335503472222221,0)" xlink:href="#X"/><use transform="matrix(0.010850694444444444,0,0,0.010850694444444444,26.671006944444443,0)" xlink:href="#Y"/><use transform="matrix(0.010850694444444444,0,0,0.010850694444444444,40.006510416666664,0)" xlink:href="#Z"/><use transform="matrix(0.010850694444444444,0,0,0.010850694444444444,53.342013888888886,0)" xlink:href="#O"/><use transform="matrix(0.010850694444444444,0,0,0.010850694444444444,66.67751736111111,0)" xlink:href="#Z"/><use transform="matrix(0.010850694444444444,0,0,0.010850694444444444,80.01302083333334,0)" xlink:href="#O"/><use transform="matrix(0.010850694444444444,0,0,0.010850694444444444,93.34852430555557,0)" xlink:href="#P"/><use transform="matrix(0.010850694444444444,0,0,0.010850694444444444,106.6840277777778,0)" xlink:href="#Q"/><use transform="matrix(0.010850694444444444,0,0,0.010850694444444444,120.01953125000003,0)" xlink:href="#V"/><use transform="matrix(0.010850694444444444,0,0,0.010850694444444444,133.35503472222226,0)" xlink:href="#aa"/></g><path fill="#333" d="M932 0L611-444 288 0H94l415-556-397-526h199l300 421 298-421h201L713-558 1133 0H932" id="ab"/><path fill="#333" d="M147 0v-137l681-806H187v-139h844v137L349-139h719V0H147" id="ac"/><g id="e"><use transform="matrix(0.010850694444444444,0,0,0.010850694444444444,0,0)" xlink:href="#ab"/><use transform="matrix(0.010850694444444444,0,0,0.010850694444444444,13.335503472222221,0)" xlink:href="#U"/><use transform="matrix(0.010850694444444444,0,0,0.010850694444444444,26.671006944444443,0)" xlink:href="#ac"/></g><g id="f"><use transform="matrix(0.010850694444444444,0,0,0.010850694444444444,0,0)" xlink:href="#T"/><use transform="matrix(0.010850694444444444,0,0,0.010850694444444444,13.335503472222221,0)" xlink:href="#M"/><use transform="matrix(0.010850694444444444,0,0,0.010850694444444444,26.671006944444443,0)" xlink:href="#U"/><use transform="matrix(0.010850694444444444,0,0,0.010850694444444444,40.006510416666664,0)" xlink:href="#V"/><use transform="matrix(0.010850694444444444,0,0,0.010850694444444444,53.342013888888886,0)" xlink:href="#ab"/><use transform="matrix(0.010850694444444444,0,0,0.010850694444444444,66.67751736111111,0)" xlink:href="#U"/><use transform="matrix(0.010850694444444444,0,0,0.010850694444444444,80.01302083333334,0)" xlink:href="#ac"/></g><path fill="#333" d="M365-904c58-129 161-200 334-200 130 0 228 46 293 138s98 233 98 420c0 189-34 331-102 425S824 20 698 20c-170 0-275-64-336-184 0 55-3 116-9 164H179c5-68 6-147 6-223v-1261h180c-2 193 4 394-4 580h4zm283 791c221 0 256-197 256-427 0-229-34-425-254-425-236 0-285 195-285 441 0 237 53 411 283 411" id="ad"/><path fill="#333" d="M631 20c-350 0-501-215-501-562 0-355 162-560 502-560 250 0 399 118 446 323l-192 14c-23-124-109-196-262-196-242 0-305 171-305 415 1 245 61 427 304 427 151 0 248-77 267-215l190 12C1039-107 883 20 631 20" id="ae"/><g id="g"><use transform="matrix(0.010850694444444444,0,0,0.010850694444444444,0,0)" xlink:href="#X"/><use transform="matrix(0.010850694444444444,0,0,0.010850694444444444,13.335503472222221,0)" xlink:href="#ad"/><use transform="matrix(0.010850694444444444,0,0,0.010850694444444444,26.671006944444443,0)" xlink:href="#ae"/></g><g id="h"><use transform="matrix(0.010850694444444444,0,0,0.010850694444444444,0,0)" xlink:href="#T"/><use transform="matrix(0.010850694444444444,0,0,0.010850694444444444,13.335503472222221,0)" xlink:href="#M"/><use transform="matrix(0.010850694444444444,0,0,0.010850694444444444,26.671006944444443,0)" xlink:href="#U"/><use transform="matrix(0.010850694444444444,0,0,0.010850694444444444,40.006510416666664,0)" xlink:href="#V"/><use transform="matrix(0.010850694444444444,0,0,0.010850694444444444,53.342013888888886,0)" xlink:href="#X"/><use transform="matrix(0.010850694444444444,0,0,0.010850694444444444,66.67751736111111,0)" xlink:href="#ad"/><use transform="matrix(0.010850694444444444,0,0,0.010850694444444444,80.01302083333334,0)" xlink:href="#ae"/></g><path fill="#333" d="M148-1120c216-7 379-89 463-229h166v1204h353V0H157v-145h439v-1021c-79 124-254 184-448 194v-148" id="af"/><g id="i"><use transform="matrix(0.010850694444444444,0,0,0.010850694444444444,0,0)" xlink:href="#W"/><use transform="matrix(0.010850694444444444,0,0,0.010850694444444444,13.335503472222221,0)" xlink:href="#X"/><use transform="matrix(0.010850694444444444,0,0,0.010850694444444444,26.671006944444443,0)" xlink:href="#Y"/><use transform="matrix(0.010850694444444444,0,0,0.010850694444444444,40.006510416666664,0)" xlink:href="#Z"/><use transform="matrix(0.010850694444444444,0,0,0.010850694444444444,53.342013888888886,0)" xlink:href="#O"/><use transform="matrix(0.010850694444444444,0,0,0.010850694444444444,66.67751736111111,0)" xlink:href="#Z"/><use transform="matrix(0.010850694444444444,0,0,0.010850694444444444,80.01302083333334,0)" xlink:href="#O"/><use transform="matrix(0.010850694444444444,0,0,0.010850694444444444,93.34852430555557,0)" xlink:href="#P"/><use transform="matrix(0.010850694444444444,0,0,0.010850694444444444,106.6840277777778,0)" xlink:href="#Q"/><use transform="matrix(0.010850694444444444,0,0,0.010850694444444444,120.01953125000003,0)" xlink:href="#V"/><use transform="matrix(0.010850694444444444,0,0,0.010850694444444444,133.35503472222226,0)" xlink:href="#af"/></g><path fill="#333" d="M473-1349c438-1 655 221 652 661C1122-268 945-8 532 0H162v-1349h311zm42 1193c308-4 416-205 418-532 2-330-131-509-459-505H353v1037h162" id="ag"/><path fill="#333" d="M528 20c-247 0-343-132-343-381v-721h180v686c-4 177 45 284 224 277 194-8 279-136 279-336v-627h181c3 360-6 732 6 1082H885c-4-54-7-126-8-185h-3C809-64 714 20 528 20" id="ah"/><g id="j"><use transform="matrix(0.010850694444444444,0,0,0.010850694444444444,0,0)" xlink:href="#ag"/><use transform="matrix(0.010850694444444444,0,0,0.010850694444444444,13.335503472222221,0)" xlink:href="#O"/><use transform="matrix(0.010850694444444444,0,0,0.010850694444444444,26.671006944444443,0)" xlink:href="#N"/><use transform="matrix(0.010850694444444444,0,0,0.010850694444444444,40.006510416666664,0)" xlink:href="#Z"/><use transform="matrix(0.010850694444444444,0,0,0.010850694444444444,53.342013888888886,0)" xlink:href="#Y"/><use transform="matrix(0.010850694444444444,0,0,0.010850694444444444,66.67751736111111,0)" xlink:href="#O"/><use transform="matrix(0.010850694444444444,0,0,0.010850694444444444,80.01302083333334,0)" xlink:href="#ad"/><use transform="matrix(0.010850694444444444,0,0,0.010850694444444444,93.34852430555557,0)" xlink:href="#ah"/><use transform="matrix(0.010850694444444444,0,0,0.010850694444444444,106.6840277777778,0)" xlink:href="#Z"/><use transform="matrix(0.010850694444444444,0,0,0.010850694444444444,120.01953125000003,0)" xlink:href="#M"/><use transform="matrix(0.010850694444444444,0,0,0.010850694444444444,133.35503472222226,0)" xlink:href="#R"/></g><path fill="#333" d="M385-1193v494h676v158H385V0H194v-1349h891v156H385" id="ai"/><path fill="#333" d="M904-1102c199 0 220 177 220 381V0H956v-686c-3-114 0-215-60-264-70-33-125-4-158 71-26 56-39 140-39 252V0H531v-686c-3-114-1-215-61-264-78-41-136 24-157 84-24 69-39 159-39 259V0H105c-3-360 6-732-6-1082h149c6 50 3 123 8 175 36-100 83-195 216-195 135 0 166 79 196 196 42-105 93-196 236-196" id="aj"/><path fill="#333" d="M1018 0H814c-67-224-138-444-200-673C552-442 476-224 407 0H204L21-1082h178c43 310 105 601 126 933 54-225 128-425 193-638h193c63 212 134 415 185 638 22-336 90-622 136-933h176" id="ak"/><g id="k"><use transform="matrix(0.010850694444444444,0,0,0.010850694444444444,0,0)" xlink:href="#ai"/><use transform="matrix(0.010850694444444444,0,0,0.010850694444444444,13.335503472222221,0)" xlink:href="#Y"/><use transform="matrix(0.010850694444444444,0,0,0.010850694444444444,26.671006944444443,0)" xlink:href="#X"/><use transform="matrix(0.010850694444444444,0,0,0.010850694444444444,40.006510416666664,0)" xlink:href="#aj"/><use transform="matrix(0.010850694444444444,0,0,0.010850694444444444,53.342013888888886,0)" xlink:href="#M"/><use transform="matrix(0.010850694444444444,0,0,0.010850694444444444,66.67751736111111,0)" xlink:href="#ak"/><use transform="matrix(0.010850694444444444,0,0,0.010850694444444444,80.01302083333334,0)" xlink:href="#P"/><use transform="matrix(0.010850694444444444,0,0,0.010850694444444444,93.34852430555557,0)" xlink:href="#Y"/><use transform="matrix(0.010850694444444444,0,0,0.010850694444444444,106.6840277777778,0)" xlink:href="#T"/></g><path fill="#333" d="M1003 0L516-638 353-469V0H162v-1349h191v673l572-673h225L646-777 1227 0h-224" id="al"/><g id="l"><use transform="matrix(0.010850694444444444,0,0,0.010850694444444444,0,0)" xlink:href="#al"/><use transform="matrix(0.010850694444444444,0,0,0.010850694444444444,13.335503472222221,0)" xlink:href="#X"/><use transform="matrix(0.010850694444444444,0,0,0.010850694444444444,26.671006944444443,0)" xlink:href="#S"/><use transform="matrix(0.010850694444444444,0,0,0.010850694444444444,40.006510416666664,0)" xlink:href="#T"/><use transform="matrix(0.010850694444444444,0,0,0.010850694444444444,53.342013888888886,0)" xlink:href="#X"/></g><g id="m"><use transform="matrix(0.010850694444444444,0,0,0.010850694444444444,0,0)" xlink:href="#L"/><use transform="matrix(0.010850694444444444,0,0,0.010850694444444444,13.335503472222221,0)" xlink:href="#P"/><use transform="matrix(0.010850694444444444,0,0,0.010850694444444444,26.671006944444443,0)" xlink:href="#ah"/><use transform="matrix(0.010850694444444444,0,0,0.010850694444444444,40.006510416666664,0)" xlink:href="#Y"/><use transform="matrix(0.010850694444444444,0,0,0.010850694444444444,53.342013888888886,0)" xlink:href="#ae"/><use transform="matrix(0.010850694444444444,0,0,0.010850694444444444,66.67751736111111,0)" xlink:href="#M"/></g><path fill="#333" d="M1034 0L896-382H333L196 0H0l510-1349h217L1228 0h-194zM847-531c-77-225-157-447-231-674-69 231-154 451-232 674h463" id="am"/><use transform="matrix(0.010850694444444444,0,0,0.010850694444444444,0,0)" xlink:href="#am" id="n"/><path fill="#333" d="M622-1349c296 4 497 117 497 404 0 282-193 424-485 431H353V0H162v-1349h460zm-15 684c195-3 320-88 320-277 0-184-129-255-328-254H353v531h254" id="an"/><g id="o"><use transform="matrix(0.010850694444444444,0,0,0.010850694444444444,0,0)" xlink:href="#an"/><use transform="matrix(0.010850694444444444,0,0,0.010850694444444444,13.335503472222221,0)" xlink:href="#Y"/><use transform="matrix(0.010850694444444444,0,0,0.010850694444444444,26.671006944444443,0)" xlink:href="#P"/><use transform="matrix(0.010850694444444444,0,0,0.010850694444444444,40.006510416666664,0)" xlink:href="#R"/><use transform="matrix(0.010850694444444444,0,0,0.010850694444444444,53.342013888888886,0)" xlink:href="#ah"/><use transform="matrix(0.010850694444444444,0,0,0.010850694444444444,66.67751736111111,0)" xlink:href="#ae"/><use transform="matrix(0.010850694444444444,0,0,0.010850694444444444,80.01302083333334,0)" xlink:href="#M"/><use transform="matrix(0.010850694444444444,0,0,0.010850694444444444,93.34852430555557,0)" xlink:href="#Y"/></g><g id="p"><use transform="matrix(0.010850694444444444,0,0,0.010850694444444444,0,0)" xlink:href="#L"/><use transform="matrix(0.010850694444444444,0,0,0.010850694444444444,13.335503472222221,0)" xlink:href="#Z"/><use transform="matrix(0.010850694444444444,0,0,0.010850694444444444,26.671006944444443,0)" xlink:href="#X"/><use transform="matrix(0.010850694444444444,0,0,0.010850694444444444,40.006510416666664,0)" xlink:href="#Z"/><use transform="matrix(0.010850694444444444,0,0,0.010850694444444444,53.342013888888886,0)" xlink:href="#M"/></g><path fill="#333" d="M802-711c201 25 350 118 350 331C1152-95 921 0 634 0H162v-1349c401 9 908-74 908 327 0 184-111 275-268 311zm-224-69c174-2 300-51 300-218 0-163-124-198-302-198H353v416h225zM353-153c281-2 612 44 606-244-5-271-329-233-606-234v478" id="ao"/><use transform="matrix(0.010850694444444444,0,0,0.010850694444444444,0,0)" xlink:href="#ao" id="q"/><path fill="#333" d="M334-464v-160h560v160H334" id="ap"/><g id="r"><use transform="matrix(0.010850694444444444,0,0,0.010850694444444444,0,0)" xlink:href="#aj"/><use transform="matrix(0.010850694444444444,0,0,0.010850694444444444,13.335503472222221,0)" xlink:href="#U"/><use transform="matrix(0.010850694444444444,0,0,0.010850694444444444,26.671006944444443,0)" xlink:href="#ap"/><use transform="matrix(0.010850694444444444,0,0,0.010850694444444444,40.006510416666664,0)" xlink:href="#Z"/><use transform="matrix(0.010850694444444444,0,0,0.010850694444444444,53.342013888888886,0)" xlink:href="#P"/><use transform="matrix(0.010850694444444444,0,0,0.010850694444444444,66.67751736111111,0)" xlink:href="#W"/><use transform="matrix(0.010850694444444444,0,0,0.010850694444444444,80.01302083333334,0)" xlink:href="#O"/><use transform="matrix(0.010850694444444444,0,0,0.010850694444444444,93.34852430555557,0)" xlink:href="#ae"/><use transform="matrix(0.010850694444444444,0,0,0.010850694444444444,106.6840277777778,0)" xlink:href="#ap"/><use transform="matrix(0.010850694444444444,0,0,0.010850694444444444,120.01953125000003,0)" xlink:href="#W"/><use transform="matrix(0.010850694444444444,0,0,0.010850694444444444,133.35503472222226,0)" xlink:href="#Y"/><use transform="matrix(0.010850694444444444,0,0,0.010850694444444444,146.69053819444449,0)" xlink:href="#M"/><use transform="matrix(0.010850694444444444,0,0,0.010850694444444444,160.0260416666667,0)" xlink:href="#S"/><use transform="matrix(0.010850694444444444,0,0,0.010850694444444444,173.36154513888894,0)" xlink:href="#O"/><use transform="matrix(0.010850694444444444,0,0,0.010850694444444444,186.69704861111117,0)" xlink:href="#ab"/><use transform="matrix(0.010850694444444444,0,0,0.010850694444444444,200.0325520833334,0)" xlink:href="#ap"/><use transform="matrix(0.010850694444444444,0,0,0.010850694444444444,213.36805555555563,0)" xlink:href="#X"/></g><g id="s"><use transform="matrix(0.010850694444444444,0,0,0.010850694444444444,0,0)" xlink:href="#aj"/><use transform="matrix(0.010850694444444444,0,0,0.010850694444444444,13.335503472222221,0)" xlink:href="#U"/><use transform="matrix(0.010850694444444444,0,0,0.010850694444444444,26.671006944444443,0)" xlink:href="#ap"/><use transform="matrix(0.010850694444444444,0,0,0.010850694444444444,40.006510416666664,0)" xlink:href="#Z"/><use transform="matrix(0.010850694444444444,0,0,0.010850694444444444,53.342013888888886,0)" xlink:href="#P"/><use transform="matrix(0.010850694444444444,0,0,0.010850694444444444,66.67751736111111,0)" xlink:href="#W"/><use transform="matrix(0.010850694444444444,0,0,0.010850694444444444,80.01302083333334,0)" xlink:href="#O"/><use transform="matrix(0.010850694444444444,0,0,0.010850694444444444,93.34852430555557,0)" xlink:href="#ae"/><use transform="matrix(0.010850694444444444,0,0,0.010850694444444444,106.6840277777778,0)" xlink:href="#ap"/><use transform="matrix(0.010850694444444444,0,0,0.010850694444444444,120.01953125000003,0)" xlink:href="#W"/><use transform="matrix(0.010850694444444444,0,0,0.010850694444444444,133.35503472222226,0)" xlink:href="#Y"/><use transform="matrix(0.010850694444444444,0,0,0.010850694444444444,146.69053819444449,0)" xlink:href="#M"/><use transform="matrix(0.010850694444444444,0,0,0.010850694444444444,160.0260416666667,0)" xlink:href="#S"/><use transform="matrix(0.010850694444444444,0,0,0.010850694444444444,173.36154513888894,0)" xlink:href="#O"/><use transform="matrix(0.010850694444444444,0,0,0.010850694444444444,186.69704861111117,0)" xlink:href="#ab"/><use transform="matrix(0.010850694444444444,0,0,0.010850694444444444,200.0325520833334,0)" xlink:href="#ap"/><use transform="matrix(0.010850694444444444,0,0,0.010850694444444444,213.36805555555563,0)" xlink:href="#ad"/></g><g id="t"><use transform="matrix(0.007595486111111108,0,0,0.007595486111111108,0,0)" xlink:href="#L"/><use transform="matrix(0.007595486111111108,0,0,0.007595486111111108,9.334852430555552,0)" xlink:href="#ah"/><use transform="matrix(0.007595486111111108,0,0,0.007595486111111108,18.669704861111104,0)" xlink:href="#ad"/><use transform="matrix(0.007595486111111108,0,0,0.007595486111111108,28.004557291666657,0)" xlink:href="#N"/><use transform="matrix(0.007595486111111108,0,0,0.007595486111111108,37.33940972222221,0)" xlink:href="#ae"/><use transform="matrix(0.007595486111111108,0,0,0.007595486111111108,46.67426215277776,0)" xlink:href="#Y"/><use transform="matrix(0.007595486111111108,0,0,0.007595486111111108,56.00911458333331,0)" xlink:href="#O"/><use transform="matrix(0.007595486111111108,0,0,0.007595486111111108,65.34396701388886,0)" xlink:href="#ad"/><use transform="matrix(0.007595486111111108,0,0,0.007595486111111108,74.67881944444441,0)" xlink:href="#M"/></g><g id="u"><use transform="matrix(0.007595486111111108,0,0,0.007595486111111108,0,0)" xlink:href="#X"/><use transform="matrix(0.007595486111111108,0,0,0.007595486111111108,9.334852430555552,0)" xlink:href="#Q"/><use transform="matrix(0.007595486111111108,0,0,0.007595486111111108,18.669704861111104,0)" xlink:href="#R"/></g><path fill="#333" d="M715 0H502L69-1082h202c94 253 197 500 285 758 19 57 36 126 52 183 96-335 234-626 350-941h201" id="aq"/><g id="v"><use transform="matrix(0.007595486111111108,0,0,0.007595486111111108,0,0)" xlink:href="#ag"/><use transform="matrix(0.007595486111111108,0,0,0.007595486111111108,9.334852430555552,0)" xlink:href="#O"/><use transform="matrix(0.007595486111111108,0,0,0.007595486111111108,18.669704861111104,0)" xlink:href="#N"/><use transform="matrix(0.007595486111111108,0,0,0.007595486111111108,28.004557291666657,0)" xlink:href="#ae"/><use transform="matrix(0.007595486111111108,0,0,0.007595486111111108,37.33940972222221,0)" xlink:href="#P"/><use transform="matrix(0.007595486111111108,0,0,0.007595486111111108,46.67426215277776,0)" xlink:href="#aq"/><use transform="matrix(0.007595486111111108,0,0,0.007595486111111108,56.00911458333331,0)" xlink:href="#M"/><use transform="matrix(0.007595486111111108,0,0,0.007595486111111108,65.34396701388886,0)" xlink:href="#Y"/></g><g id="w"><use transform="matrix(0.007595486111111108,0,0,0.007595486111111108,0,0)" xlink:href="#ad"/><use transform="matrix(0.007595486111111108,0,0,0.007595486111111108,9.334852430555552,0)" xlink:href="#U"/></g><path fill="#333" d="M1121-976c0 225-142 341-344 379L1177 0H957L591-575H353V0H162v-1349h482c281 3 477 100 477 373zM633-726c181-1 296-73 296-247 0-149-101-223-304-223H353v470h280" id="ar"/><path fill="#333" d="M1048-32c-2 300-135 456-433 456-222-1-358-88-400-267l184-25c22 99 100 157 222 156 184-2 248-125 248-315 0-64 3-133-2-194C807-100 706-13 524-12c-306 0-381-228-381-537 0-318 85-550 400-550 164 0 271 83 325 202h3c1-60 3-134 12-185h171c-13 339-4 702-6 1050zM585-145c210-8 284-178 284-406 0-192-52-331-177-392-33-16-69-22-104-22-223 2-259 184-259 414 0 229 31 415 256 406" id="as"/><path fill="#333" d="M162 0v-1349h919v156H353v422h668v154H353v461h769V0H162" id="at"/><g id="x"><use transform="matrix(0.007595486111111108,0,0,0.007595486111111108,0,0)" xlink:href="#ar"/><use transform="matrix(0.007595486111111108,0,0,0.007595486111111108,9.334852430555552,0)" xlink:href="#M"/><use transform="matrix(0.007595486111111108,0,0,0.007595486111111108,18.669704861111104,0)" xlink:href="#as"/><use transform="matrix(0.007595486111111108,0,0,0.007595486111111108,28.004557291666657,0)" xlink:href="#at"/><use transform="matrix(0.007595486111111108,0,0,0.007595486111111108,37.33940972222221,0)" xlink:href="#ab"/></g><path fill="#333" d="M410 425v-1909h547v139H590V286h367v139H410" id="au"/><path fill="#333" d="M270 425V286h367v-1631H270v-139h547V425H270" id="av"/><g id="y"><use transform="matrix(0.007595486111111108,0,0,0.007595486111111108,0,0)" xlink:href="#aj"/><use transform="matrix(0.007595486111111108,0,0,0.007595486111111108,9.334852430555552,0)" xlink:href="#U"/><use transform="matrix(0.007595486111111108,0,0,0.007595486111111108,18.669704861111104,0)" xlink:href="#ap"/><use transform="matrix(0.007595486111111108,0,0,0.007595486111111108,28.004557291666657,0)" xlink:href="#Z"/><use transform="matrix(0.007595486111111108,0,0,0.007595486111111108,37.33940972222221,0)" xlink:href="#P"/><use transform="matrix(0.007595486111111108,0,0,0.007595486111111108,46.67426215277776,0)" xlink:href="#W"/><use transform="matrix(0.007595486111111108,0,0,0.007595486111111108,56.00911458333331,0)" xlink:href="#O"/><use transform="matrix(0.007595486111111108,0,0,0.007595486111111108,65.34396701388886,0)" xlink:href="#ae"/><use transform="matrix(0.007595486111111108,0,0,0.007595486111111108,74.67881944444441,0)" xlink:href="#ap"/><use transform="matrix(0.007595486111111108,0,0,0.007595486111111108,84.01367187499997,0)" xlink:href="#W"/><use transform="matrix(0.007595486111111108,0,0,0.007595486111111108,93.34852430555553,0)" xlink:href="#Y"/><use transform="matrix(0.007595486111111108,0,0,0.007595486111111108,102.68337673611109,0)" xlink:href="#M"/><use transform="matrix(0.007595486111111108,0,0,0.007595486111111108,112.01822916666664,0)" xlink:href="#S"/><use transform="matrix(0.007595486111111108,0,0,0.007595486111111108,121.3530815972222,0)" xlink:href="#O"/><use transform="matrix(0.007595486111111108,0,0,0.007595486111111108,130.68793402777774,0)" xlink:href="#ab"/><use transform="matrix(0.007595486111111108,0,0,0.007595486111111108,140.0227864583333,0)" xlink:href="#ap"/><use transform="matrix(0.007595486111111108,0,0,0.007595486111111108,149.35763888888883,0)" xlink:href="#au"/><use transform="matrix(0.007595486111111108,0,0,0.007595486111111108,158.69249131944437,0)" xlink:href="#X"/><use transform="matrix(0.007595486111111108,0,0,0.007595486111111108,168.02734374999991,0)" xlink:href="#ap"/><use transform="matrix(0.007595486111111108,0,0,0.007595486111111108,177.36219618055546,0)" xlink:href="#ac"/><use transform="matrix(0.007595486111111108,0,0,0.007595486111111108,186.697048611111,0)" xlink:href="#av"/></g><path fill="#333" d="M648-963c-190 6-283 138-283 336V0H185v-1484h181c-2 197 6 404-9 587h3c62-120 159-205 339-205 242 0 351 135 350 381V0H868v-695c1-168-57-273-220-268" id="aw"/><g id="z"><use transform="matrix(0.006510416666666664,0,0,0.006510416666666664,0,0)" xlink:href="#L"/><use transform="matrix(0.006510416666666664,0,0,0.006510416666666664,8.00130208333333,0)" xlink:href="#Q"/><use transform="matrix(0.006510416666666664,0,0,0.006510416666666664,16.00260416666666,0)" xlink:href="#X"/><use transform="matrix(0.006510416666666664,0,0,0.006510416666666664,24.003906249999993,0)" xlink:href="#W"/><use transform="matrix(0.006510416666666664,0,0,0.006510416666666664,32.00520833333332,0)" xlink:href="#N"/><use transform="matrix(0.006510416666666664,0,0,0.006510416666666664,40.00651041666665,0)" xlink:href="#aw"/><use transform="matrix(0.006510416666666664,0,0,0.006510416666666664,48.00781249999998,0)" xlink:href="#P"/><use transform="matrix(0.006510416666666664,0,0,0.006510416666666664,56.0091145833333,0)" xlink:href="#Z"/></g><path fill="#333" d="M604-135c236 0 291-142 291-376v-838h190v859c5 340-142 510-480 510-326 0-463-164-463-492v-877h191v851c-3 222 46 363 271 363" id="ax"/><g id="A"><use transform="matrix(0.006510416666666664,0,0,0.006510416666666664,0,0)" xlink:href="#ax"/><use transform="matrix(0.006510416666666664,0,0,0.006510416666666664,8.00130208333333,0)" xlink:href="#W"/><use transform="matrix(0.006510416666666664,0,0,0.006510416666666664,16.00260416666666,0)" xlink:href="#R"/><use transform="matrix(0.006510416666666664,0,0,0.006510416666666664,24.003906249999993,0)" xlink:href="#X"/><use transform="matrix(0.006510416666666664,0,0,0.006510416666666664,32.00520833333332,0)" xlink:href="#Z"/><use transform="matrix(0.006510416666666664,0,0,0.006510416666666664,40.00651041666665,0)" xlink:href="#M"/></g><path fill="#333" d="M709-1193V0H519v-1193H76v-156h1076v156H709" id="ay"/><path fill="#333" d="M496 0v-299h235V0H496zm0-783v-299h235v299H496" id="az"/><g id="B"><use transform="matrix(0.010850694444444444,0,0,0.010850694444444444,0,0)" xlink:href="#ay"/><use transform="matrix(0.010850694444444444,0,0,0.010850694444444444,13.335503472222221,0)" xlink:href="#X"/><use transform="matrix(0.010850694444444444,0,0,0.010850694444444444,26.671006944444443,0)" xlink:href="#N"/><use transform="matrix(0.010850694444444444,0,0,0.010850694444444444,40.006510416666664,0)" xlink:href="#T"/><use transform="matrix(0.010850694444444444,0,0,0.010850694444444444,53.342013888888886,0)" xlink:href="#az"/></g><path fill="#333" d="M102-681c0-398 126-689 513-689 165 0 291 58 379 174s132 287 132 515c-1 318-88 554-298 657-123 61-317 58-438-3-206-104-288-341-288-654zm749 406c94-160 97-656-5-807-57-85-130-132-231-132-104 0-178 47-234 132-101 153-99 655 1 809 57 89 130 138 232 138 109 0 184-49 237-140" id="aA"/><g id="C"><use transform="matrix(0.010850694444444444,0,0,0.010850694444444444,0,0)" xlink:href="#aA"/><use transform="matrix(0.010850694444444444,0,0,0.010850694444444444,13.335503472222221,0)" xlink:href="#Y"/><use transform="matrix(0.010850694444444444,0,0,0.010850694444444444,26.671006944444443,0)" xlink:href="#R"/><use transform="matrix(0.010850694444444444,0,0,0.010850694444444444,40.006510416666664,0)" xlink:href="#M"/><use transform="matrix(0.010850694444444444,0,0,0.010850694444444444,53.342013888888886,0)" xlink:href="#Y"/><use transform="matrix(0.010850694444444444,0,0,0.010850694444444444,66.67751736111111,0)" xlink:href="#M"/><use transform="matrix(0.010850694444444444,0,0,0.010850694444444444,80.01302083333334,0)" xlink:href="#R"/></g><path fill="#333" d="M736-142h380V0H134v-142h422v-1200H267v-142h469v1342" id="aB"/><g id="D"><use transform="matrix(0.010850694444444444,0,0,0.010850694444444444,0,0)" xlink:href="#L"/><use transform="matrix(0.010850694444444444,0,0,0.010850694444444444,13.335503472222221,0)" xlink:href="#Z"/><use transform="matrix(0.010850694444444444,0,0,0.010850694444444444,26.671006944444443,0)" xlink:href="#X"/><use transform="matrix(0.010850694444444444,0,0,0.010850694444444444,40.006510416666664,0)" xlink:href="#Z"/><use transform="matrix(0.010850694444444444,0,0,0.010850694444444444,53.342013888888886,0)" xlink:href="#M"/><use transform="matrix(0.010850694444444444,0,0,0.010850694444444444,66.67751736111111,0)" xlink:href="#S"/><use transform="matrix(0.010850694444444444,0,0,0.010850694444444444,80.01302083333334,0)" xlink:href="#ah"/><use transform="matrix(0.010850694444444444,0,0,0.010850694444444444,93.34852430555557,0)" xlink:href="#aB"/></g><g id="E"><use transform="matrix(0.010850694444444444,0,0,0.010850694444444444,0,0)" xlink:href="#ay"/><use transform="matrix(0.010850694444444444,0,0,0.010850694444444444,13.335503472222221,0)" xlink:href="#Y"/><use transform="matrix(0.010850694444444444,0,0,0.010850694444444444,26.671006944444443,0)" xlink:href="#X"/><use transform="matrix(0.010850694444444444,0,0,0.010850694444444444,40.006510416666664,0)" xlink:href="#Q"/><use transform="matrix(0.010850694444444444,0,0,0.010850694444444444,53.342013888888886,0)" xlink:href="#N"/><use transform="matrix(0.010850694444444444,0,0,0.010850694444444444,66.67751736111111,0)" xlink:href="#S"/><use transform="matrix(0.010850694444444444,0,0,0.010850694444444444,80.01302083333334,0)" xlink:href="#P"/><use transform="matrix(0.010850694444444444,0,0,0.010850694444444444,93.34852430555557,0)" xlink:href="#Y"/><use transform="matrix(0.010850694444444444,0,0,0.010850694444444444,106.6840277777778,0)" xlink:href="#aj"/></g><path fill="#333" d="M934-1102c199 0 220 177 220 381V0H926c-2-260 10-533-4-785-4-72-14-138-83-138-34 0-61 27-81 81s-29 134-29 241V0H501c-2-260 9-533-5-785-4-72-13-138-82-138-46 0-65 47-80 93-21 67-30 155-30 248V0H75c-3-360 6-732-6-1082h209c6 50 3 123 8 175 36-100 83-195 216-195 135 0 166 79 196 196 42-105 93-196 236-196" id="aC"/><path fill="#333" d="M143 212c82 12 185 12 233-31 50-45 83-117 110-192L38-1082h297c100 284 211 557 291 861 72-305 176-578 270-861h294L742 57c-80 192-156 368-417 368-60 0-131-4-182-13V212" id="aD"/><path fill="#333" d="M324-409v-244h580v244H324" id="aE"/><path fill="#333" d="M711 13c-250 0-386-99-385-349l2-556H161v-190h181l88-282h176v282h385v190H606v530c-10 130 45 186 174 184 91-2 176-11 255-27v186C933-1 833 13 711 13" id="aF"/><path fill="#333" d="M616-1102c361 0 521 202 521 560 0 354-171 562-527 562C259 20 92-192 92-542c0-351 169-560 524-560zm-9 930c200-2 236-165 236-370 0-199-27-367-223-367-195 0-233 146-233 367 0 129 18 223 55 282s92 88 165 88" id="aG"/><path fill="#333" d="M427-171c3 195 2 397 2 596H148V-846c1-83-4-168-8-236h272c10 49 14 118 15 176h4c59-114 151-197 316-197 291 0 385 259 385 560 0 243-65 433-220 521-50 28-109 42-176 42-162-2-253-78-309-191zm69-661c-91 113-92 463-1 586 46 62 145 101 225 54 96-57 118-191 119-351 0-123-18-215-53-276-46-82-128-115-220-74-25 12-48 33-70 61" id="aH"/><path fill="#333" d="M794-190h353V0H118v-190h395v-702H223v-190h571v892zM513-1277v-207h281v207H513" id="aI"/><path fill="#333" d="M1109-360C1066-122 902 20 624 20c-347 0-514-209-514-555 0-353 168-567 518-567 270 0 425 136 473 361l-283 14c-16-106-75-183-196-182-75 0-130 31-165 93s-52 152-52 270c0 249 74 374 221 374 120 0 188-82 201-201" id="aJ"/><path fill="#333" d="M875-1102c70 0 148 7 206 17v237c-110-17-267-37-359 15-123 69-192 207-192 395V0H250c-10-367 32-789-52-1082h271c19 69 36 149 46 228h4c52-151 151-250 356-248" id="aK"/><path fill="#333" d="M1113-274C1038-96 884 20 626 20c-352 0-526-209-526-566 0-358 185-556 530-556 358 0 496 251 499 615H395c5 180 68 319 245 319 102 0 186-45 208-129zM857-663c-6-177-128-307-315-247-94 30-141 121-145 247h460" id="aL"/><path fill="#333" d="M844-1321c-130 0-195 53-191 182v57h443v190H653V0H373v-892H117v-190h256v-83c5-247 162-348 422-349 120-1 232 13 327 28v184c-84-10-183-19-278-19" id="aM"/><path fill="#333" d="M874 0L612-392 348 0H49l406-559-387-523h303l241 354 240-354h305L770-562 1179 0H874" id="aN"/><path fill="#333" d="M775-193C708-75 621 20 439 20 226 20 106-93 106-306c0-251 170-341 417-346l223-4c4-143-12-264-148-264-103 0-141 58-150 153l-293-14c37-219 194-321 455-321 263 0 418 130 417 390v392c1 84 5 161 89 160 21 0 42-2 62-6v152c-57 15-108 27-180 26-145 0-202-73-217-205h-6zm-256 17c168 0 234-139 227-325-166 4-347-25-347 173 0 94 33 152 120 152" id="aO"/><g id="F"><use transform="matrix(0.007595486111111112,0,0,0.007595486111111112,0,0)" xlink:href="#aC"/><use transform="matrix(0.007595486111111112,0,0,0.007595486111111112,9.334852430555557,0)" xlink:href="#aD"/><use transform="matrix(0.007595486111111112,0,0,0.007595486111111112,18.669704861111114,0)" xlink:href="#aE"/><use transform="matrix(0.007595486111111112,0,0,0.007595486111111112,28.00455729166667,0)" xlink:href="#aF"/><use transform="matrix(0.007595486111111112,0,0,0.007595486111111112,37.33940972222223,0)" xlink:href="#aG"/><use transform="matrix(0.007595486111111112,0,0,0.007595486111111112,46.674262152777786,0)" xlink:href="#aH"/><use transform="matrix(0.007595486111111112,0,0,0.007595486111111112,56.00911458333334,0)" xlink:href="#aI"/><use transform="matrix(0.007595486111111112,0,0,0.007595486111111112,65.3439670138889,0)" xlink:href="#aJ"/><use transform="matrix(0.007595486111111112,0,0,0.007595486111111112,74.67881944444446,0)" xlink:href="#aE"/><use transform="matrix(0.007595486111111112,0,0,0.007595486111111112,84.01367187500001,0)" xlink:href="#aH"/><use transform="matrix(0.007595486111111112,0,0,0.007595486111111112,93.34852430555557,0)" xlink:href="#aK"/><use transform="matrix(0.007595486111111112,0,0,0.007595486111111112,102.68337673611113,0)" xlink:href="#aL"/><use transform="matrix(0.007595486111111112,0,0,0.007595486111111112,112.01822916666669,0)" xlink:href="#aM"/><use transform="matrix(0.007595486111111112,0,0,0.007595486111111112,121.35308159722224,0)" xlink:href="#aI"/><use transform="matrix(0.007595486111111112,0,0,0.007595486111111112,130.6879340277778,0)" xlink:href="#aN"/><use transform="matrix(0.007595486111111112,0,0,0.007595486111111112,140.02278645833337,0)" xlink:href="#aE"/><use transform="matrix(0.007595486111111112,0,0,0.007595486111111112,149.3576388888889,0)" xlink:href="#aO"/></g><path fill="#333" d="M768-1103c247 0 336 167 336 416V0H824v-619c-3-164-24-273-171-273-164 0-229 142-229 312V0H143c-4-359 9-736-8-1082h268c7 63 12 146 13 215h4c67-145 160-236 348-236" id="aP"/><g id="G"><use transform="matrix(0.007595486111111112,0,0,0.007595486111111112,0,0)" xlink:href="#aH"/><use transform="matrix(0.007595486111111112,0,0,0.007595486111111112,9.334852430555557,0)" xlink:href="#aO"/><use transform="matrix(0.007595486111111112,0,0,0.007595486111111112,18.669704861111114,0)" xlink:href="#aK"/><use transform="matrix(0.007595486111111112,0,0,0.007595486111111112,28.00455729166667,0)" xlink:href="#aF"/><use transform="matrix(0.007595486111111112,0,0,0.007595486111111112,37.33940972222223,0)" xlink:href="#aI"/><use transform="matrix(0.007595486111111112,0,0,0.007595486111111112,46.674262152777786,0)" xlink:href="#aF"/><use transform="matrix(0.007595486111111112,0,0,0.007595486111111112,56.00911458333334,0)" xlink:href="#aI"/><use transform="matrix(0.007595486111111112,0,0,0.007595486111111112,65.3439670138889,0)" xlink:href="#aG"/><use transform="matrix(0.007595486111111112,0,0,0.007595486111111112,74.67881944444446,0)" xlink:href="#aP"/></g><path fill="#333" d="M117-675c0-408 109-695 502-695 384 0 492 295 492 695 0 326-84 561-303 658-117 51-277 52-394 1-217-95-297-335-297-659zm591 451c148-93 132-449 108-680-15-138-53-246-199-246-150 0-193 107-207 248-22 230-40 585 106 678 50 32 141 32 192 0zM506-555v-249h215v249H506" id="aQ"/><use transform="matrix(0.007595486111111112,0,0,0.007595486111111112,0,0)" xlink:href="#aQ" id="H"/><path fill="#333" d="M429-1484c1 190-1 388 0 572 54-116 155-191 317-191 300 0 386 257 386 563 0 241-73 429-226 518-49 28-106 42-169 42-162 0-251-81-306-196h-4c-1 59-5 127-15 176H140c4-67 9-153 8-236v-1248h281zm66 648c-93 114-92 466 1 585 35 45 77 79 142 79 64 0 112-31 148-92 69-115 68-440-2-561-39-68-131-111-221-70-25 11-46 32-68 59" id="aR"/><g id="I"><use transform="matrix(0.007595486111111112,0,0,0.007595486111111112,0,0)" xlink:href="#aC"/><use transform="matrix(0.007595486111111112,0,0,0.007595486111111112,9.334852430555557,0)" xlink:href="#aD"/><use transform="matrix(0.007595486111111112,0,0,0.007595486111111112,18.669704861111114,0)" xlink:href="#aE"/><use transform="matrix(0.007595486111111112,0,0,0.007595486111111112,28.00455729166667,0)" xlink:href="#aF"/><use transform="matrix(0.007595486111111112,0,0,0.007595486111111112,37.33940972222223,0)" xlink:href="#aG"/><use transform="matrix(0.007595486111111112,0,0,0.007595486111111112,46.674262152777786,0)" xlink:href="#aH"/><use transform="matrix(0.007595486111111112,0,0,0.007595486111111112,56.00911458333334,0)" xlink:href="#aI"/><use transform="matrix(0.007595486111111112,0,0,0.007595486111111112,65.3439670138889,0)" xlink:href="#aJ"/><use transform="matrix(0.007595486111111112,0,0,0.007595486111111112,74.67881944444446,0)" xlink:href="#aE"/><use transform="matrix(0.007595486111111112,0,0,0.007595486111111112,84.01367187500001,0)" xlink:href="#aH"/><use transform="matrix(0.007595486111111112,0,0,0.007595486111111112,93.34852430555557,0)" xlink:href="#aK"/><use transform="matrix(0.007595486111111112,0,0,0.007595486111111112,102.68337673611113,0)" xlink:href="#aL"/><use transform="matrix(0.007595486111111112,0,0,0.007595486111111112,112.01822916666669,0)" xlink:href="#aM"/><use transform="matrix(0.007595486111111112,0,0,0.007595486111111112,121.35308159722224,0)" xlink:href="#aI"/><use transform="matrix(0.007595486111111112,0,0,0.007595486111111112,130.6879340277778,0)" xlink:href="#aN"/><use transform="matrix(0.007595486111111112,0,0,0.007595486111111112,140.02278645833337,0)" xlink:href="#aE"/><use transform="matrix(0.007595486111111112,0,0,0.007595486111111112,149.3576388888889,0)" xlink:href="#aR"/></g><path fill="#333" d="M138-1120c207-4 339-93 415-229h266v1140h323V0H149v-209h389v-891c-70 121-216 187-400 194v-214" id="aS"/><use transform="matrix(0.007595486111111112,0,0,0.007595486111111112,0,0)" xlink:href="#aS" id="J"/><g id="K"><use transform="matrix(0.010850694444444444,0,0,0.010850694444444444,0,0)" xlink:href="#L"/><use transform="matrix(0.010850694444444444,0,0,0.010850694444444444,13.335503472222221,0)" xlink:href="#Z"/><use transform="matrix(0.010850694444444444,0,0,0.010850694444444444,26.671006944444443,0)" xlink:href="#X"/><use transform="matrix(0.010850694444444444,0,0,0.010850694444444444,40.006510416666664,0)" xlink:href="#Z"/><use transform="matrix(0.010850694444444444,0,0,0.010850694444444444,53.342013888888886,0)" xlink:href="#M"/></g></defs></g></svg>